<svg width="20" height="20" fill="none" xmlns="http://www.w3.org/2000/svg"><g clip-path="url(#clip0)" fill="#4170C0"><path d="M19.554.464A1.544 1.544 0 0018.459 0h-.013c-.85 0-1.547.691-1.554 1.541-.003.415.155.807.446 1.103.291.296.68.46 1.095.464h.013c.85 0 1.547-.691 1.554-1.541a1.544 1.544 0 00-.446-1.103zm-1.108 2.07h-.008a.973.973 0 01-.69-.293.973.973 0 01-.282-.695.982.982 0 01.98-.972h.008a.973.973 0 01.69.293.973.973 0 01.282.695.982.982 0 01-.98.972zM1.567 8.446h-.013c-.85 0-1.547.692-1.554 1.541a1.556 1.556 0 001.541 1.567h.013c.85 0 1.547-.691 1.554-1.54a1.556 1.556 0 00-1.541-1.568zm-.013 2.534h-.008a.98.98 0 01.008-1.96h.008a.981.981 0 01-.008 1.96zm5.861-8.381h-.013c-.85 0-1.547.691-1.554 1.54a1.556 1.556 0 001.541 1.567h.013c.85 0 1.547-.69 1.554-1.54a1.556 1.556 0 00-1.541-1.567zm-.013 2.533h-.008a.981.981 0 01.008-1.96h.008a.981.981 0 01-.008 1.96zm4.236 1.689h-.013c-.85 0-1.547.692-1.554 1.541a1.556 1.556 0 001.541 1.567h.013c.85 0 1.547-.691 1.554-1.54a1.556 1.556 0 00-1.541-1.568zm-.013 2.534h-.008a.981.981 0 01.007-1.96h.009a.98.98 0 01-.008 1.96z"/><path d="M17.339 2.24l-5.023 5.036.406.406 5.024-5.036-.407-.406zM8.5 4.846l-.406.406 2.434 2.433.405-.406L8.5 4.846zm-2.197-.002L2.247 8.9l.406.406L6.709 5.25l-.406-.406zM16.47 5.912V20H20V5.912h-3.53zm.574 13.514V6.486h2.382v12.94h-2.382zm-6.064-7.602V20h3.53v-8.176h-3.53zm2.956 7.602h-2.382v-7.028h2.382v7.028zM5.49 11.402V20h3.53v-8.598H5.49zm2.956 8.024H6.064v-7.45h2.382v7.45zM0 13.514V20h3.53v-6.486H0zm2.956 5.912H.574v-5.338h2.382v5.338z"/></g><defs><clipPath id="clip0"><path fill="#fff" d="M0 0h20v20H0z"/></clipPath></defs></svg>