<svg width="20" height="20" fill="none" xmlns="http://www.w3.org/2000/svg"><path d="M7.193 16.666c-3.07 0-6.334-.817-6.334-2.333v-2a.333.333 0 11.667 0v2C1.526 15.03 3.682 16 7.193 16c.644 0 1.277-.035 1.879-.102a.334.334 0 01.074.663c-.627.07-1.284.105-1.953.105z" fill="#1FC7D3"/><path d="M7.193 14.667c-3.07 0-6.334-.818-6.334-2.334v-2a.333.333 0 11.667 0v2C1.526 13.03 3.682 14 7.193 14c.51 0 1.015-.022 1.502-.064.189-.02.346.12.362.302a.333.333 0 01-.303.362c-.507.044-1.032.067-1.561.067zm6-4.667a.333.333 0 01-.334-.333V8.333a.333.333 0 11.667 0v1.334a.333.333 0 01-.333.333z" fill="#1FC7D3"/><path d="M7.193 12.667c-3.07 0-6.334-.818-6.334-2.334v-2a.333.333 0 11.667 0v2C1.526 11.03 3.682 12 7.193 12c.736 0 1.454-.044 2.134-.133a.333.333 0 11.086.66c-.709.093-1.456.14-2.22.14z" fill="#1FC7D3"/><path d="M7.193 10.667c-3.07 0-6.334-.818-6.334-2.334v-2a.333.333 0 11.667 0v2C1.526 9.03 3.682 10 7.193 10c3.51 0 5.666-.97 5.666-1.667v-2a.333.333 0 11.667 0v2c0 1.516-3.263 2.334-6.333 2.334z" fill="#1FC7D3"/><path d="M7.193 8.667c-3.07 0-6.334-.818-6.334-2.334v-2a.333.333 0 11.667 0v2C1.526 7.03 3.682 8 7.193 8c3.51 0 5.666-.97 5.666-1.667v-2a.333.333 0 11.667 0v2c0 1.516-3.263 2.334-6.333 2.334z" fill="#1FC7D3"/><path d="M7.193 6.667c-3.07 0-6.334-.818-6.334-2.334v-2a.333.333 0 11.667 0v2C1.526 5.03 3.682 6 7.193 6c3.51 0 5.666-.97 5.666-1.667v-2a.333.333 0 11.667 0v2c0 1.516-3.263 2.334-6.333 2.334z" fill="#1FC7D3"/><path d="M7.193 4.667c-3.07 0-6.334-.818-6.334-2.334C.86.818 4.122 0 7.193 0c3.07 0 6.333.818 6.333 2.333 0 1.516-3.263 2.334-6.333 2.334zm0-4c-3.511 0-5.667.97-5.667 1.666S3.682 4 7.193 4c3.51 0 5.666-.97 5.666-1.667 0-.696-2.156-1.666-5.666-1.666zM13.86 20a5.34 5.34 0 01-5.334-5.334 5.34 5.34 0 015.333-5.333 5.34 5.34 0 015.333 5.333A5.34 5.34 0 0113.86 20zm0-10a4.672 4.672 0 00-4.667 4.666 4.672 4.672 0 004.666 4.667 4.672 4.672 0 004.667-4.667A4.672 4.672 0 0013.859 10z" fill="#1FC7D3"/><path d="M13.86 19a4.338 4.338 0 01-4.334-4.334 4.338 4.338 0 014.333-4.333 4.338 4.338 0 014.334 4.333A4.338 4.338 0 0113.859 19zm0-8a3.67 3.67 0 00-3.667 3.666 3.67 3.67 0 003.666 3.667 3.67 3.67 0 003.667-3.666A3.67 3.67 0 0013.86 11z" fill="#1FC7D3"/><path d="M12.781 12.824c0-.035.024-.058.058-.058h1.475c.84 0 1.236.42 1.236 1.055 0 .449-.21.705-.46.839v.012c.244.093.53.408.53.891 0 .787-.496 1.166-1.364 1.166h-1.417a.055.055 0 01-.058-.058v-3.847zm1.516 1.591c.35 0 .565-.21.565-.518 0-.315-.216-.525-.565-.525h-.793c-.023 0-.035.011-.035.034v.974c0 .023.012.035.035.035h.793zm-.793 1.708h.828c.384 0 .6-.222.6-.554 0-.326-.216-.548-.6-.548h-.828c-.023 0-.035.012-.035.035v1.032c0 .023.012.035.035.035z" fill="#1FC7D3"/><path d="M13.86 13.333a.333.333 0 01-.334-.333v-.667a.333.333 0 11.667 0V13c0 .184-.15.333-.334.333zm0 4.001a.333.333 0 01-.334-.333v-.334a.333.333 0 11.667 0v.334c0 .184-.15.333-.334.333z" fill="#1FC7D3"/></svg>