<svg width="20" height="20" fill="none" xmlns="http://www.w3.org/2000/svg"><g clip-path="url(#clip0)" fill="#1FC7D3"><path d="M4.548 16.413l-.495-.824a1.157 1.157 0 01.398-1.596 1.165 1.165 0 011.597.398l.98 1.63-.545.327-.98-1.63a.529.529 0 00-.906.544l.495.825-.544.326z"/><path d="M10.137 19.235c-1.499 0-2.141-.238-2.353-.344l-3.66-.484-2.064-1.11a1.168 1.168 0 01-.511-1.508l-.002-.001.035-.067.002.001a1.17 1.17 0 011.537-.415l1.354.715 3.082-.056.45-.283c-.584-.337-1.443-.927-1.585-1.556a.803.803 0 01.166-.702c.747-.927 4.066.741 5.538 1.55l3.46.008-.001.634-3.623-.008-.071-.04c-3.064-1.692-4.66-1.93-4.809-1.745a.172.172 0 00-.04.164c.095.423 1.073 1.065 1.737 1.386l.516.249-1.549.975-3.423.062-1.498-.79a.533.533 0 00-.7.185.532.532 0 00.236.683l1.961 1.055 3.675.486.06.039c.008.004 1.48.805 7.328-.335l.122.623c-2.465.48-4.185.629-5.37.629zm-.121-12.251a3.496 3.496 0 01-3.492-3.492A3.496 3.496 0 0110.016 0a3.496 3.496 0 013.492 3.492 3.496 3.496 0 01-3.492 3.492zm0-6.35A2.86 2.86 0 007.16 3.493a2.86 2.86 0 002.857 2.857 2.86 2.86 0 002.857-2.857A2.86 2.86 0 0010.016.635zm2.381 9.207H7.635a1.112 1.112 0 010-2.222h4.762a1.112 1.112 0 01.001 2.222zM7.635 8.254a.477.477 0 000 .952h4.762a.477.477 0 000-.952H7.635zm4.762 4.762H7.635a1.112 1.112 0 01-1.11-1.11c0-.613.498-1.112 1.11-1.112h4.762a1.112 1.112 0 01.001 2.222zM7.635 11.43a.477.477 0 000 .952h4.762a.476.476 0 000-.952H7.635z"/><path d="M12.397 11.428H7.635a1.112 1.112 0 010-2.222h4.762a1.112 1.112 0 01.001 2.222zM7.635 9.841a.477.477 0 000 .952h4.762a.476.476 0 000-.952H7.635zM9.1 2.012c0-.027.018-.044.044-.044h1.105c.628 0 .925.314.925.79 0 .336-.157.528-.345.628v.009c.183.07.397.306.397.668 0 .589-.37.873-1.021.873h-1.06c-.027 0-.044-.018-.044-.044v-2.88zm1.135 1.19c.263 0 .424-.156.424-.388 0-.235-.161-.392-.424-.392h-.593c-.018 0-.026.008-.026.026v.729c0 .017.008.026.026.026h.593zm-.593 1.28h.62c.288 0 .45-.166.45-.415 0-.244-.162-.41-.45-.41h-.62c-.018 0-.026.009-.026.026v.772c0 .018.008.027.026.027z"/><path d="M10.175 2.222a.159.159 0 01-.159-.159v-.317a.159.159 0 11.317 0v.317a.159.159 0 01-.158.159zm0 3.175a.159.159 0 01-.159-.159V4.92a.159.159 0 11.317 0v.318a.159.159 0 01-.158.159zM18.288 20h-2.855a.317.317 0 01-.318-.317V14.28c0-.175.143-.317.318-.317h2.855c.176 0 .318.142.318.317v5.403a.317.317 0 01-.318.317zm-2.538-.635h2.22v-4.767h-2.22v4.767z"/></g><defs><clipPath id="clip0"><path fill="#fff" d="M0 0h20v20H0z"/></clipPath></defs></svg>