<svg width="36" height="36" fill="none" xmlns="http://www.w3.org/2000/svg"><path d="M35.71 18.154a17.86 17.86 0 01-5.219 12.619A17.801 17.801 0 0117.893 36a17.8 17.8 0 01-12.598-5.227 17.861 17.861 0 01-5.218-12.62A17.86 17.86 0 015.295 5.535 17.802 17.802 0 0117.893.308a17.8 17.8 0 0112.598 5.227 17.86 17.86 0 015.218 12.619z" fill="#F7931A"/><path d="M35.227 18.067c0 4.594-1.821 9-5.064 12.248a17.277 17.277 0 01-12.228 5.073 17.278 17.278 0 01-12.228-5.073A17.336 17.336 0 01.643 18.067c0-4.594 1.821-9 5.064-12.248A17.278 17.278 0 0117.935.746a17.28 17.28 0 0112.228 5.073 17.336 17.336 0 015.064 12.248z" fill="#fff"/><path d="M34.65 17.995c0 4.443-1.762 8.704-4.899 11.845a16.71 16.71 0 01-11.826 4.907A16.71 16.71 0 016.099 29.84 16.767 16.767 0 011.2 17.995 16.76 16.76 0 016.1 6.149a16.71 16.71 0 0118.226-3.632 16.724 16.724 0 019.052 9.067 16.776 16.776 0 011.273 6.41z" fill="#F7931A"/><path fill-rule="evenodd" clip-rule="evenodd" d="M21.515 11.606l-6.98-.003 3.492-6.054 3.488 6.057zm-7.327-.003l-6.98-.003 3.493-6.053 3.487 6.056zm14.825.005l-6.98-.003 3.493-6.054 3.487 6.057zM18.26 5.546l6.98.012-3.5 6.049-3.48-6.061zm-7.386 0l6.98.012-3.5 6.049-3.48-6.061zm3.66 6.404l6.98.04-3.5 21.285-3.48-21.326zm7.499.002l6.966.041-10.676 21.285 3.71-21.326zm-8.017-.002l-6.967.04 10.677 21.285-3.71-21.326z" fill="#fff"/></svg>