<svg width="42" height="41" fill="none" xmlns="http://www.w3.org/2000/svg"><path d="M41.53 20.604c0 5.41-2.162 10.597-6.012 14.422A20.597 20.597 0 0121.002 41a20.597 20.597 0 01-14.517-5.974A20.329 20.329 0 01.473 20.604 20.33 20.33 0 016.485 6.183 20.597 20.597 0 0121.002.209a20.597 20.597 0 0114.516 5.974 20.329 20.329 0 016.013 14.421z" fill="#F7931A"/><path d="M40.975 20.506c0 5.25-2.1 10.285-5.836 13.998a19.991 19.991 0 01-14.09 5.798A19.991 19.991 0 016.96 34.504a19.73 19.73 0 01-5.835-13.998c0-5.25 2.099-10.285 5.835-13.998A19.991 19.991 0 0121.05.71a19.991 19.991 0 0114.089 5.798 19.73 19.73 0 015.836 13.998z" fill="#fff"/><path d="M40.31 20.423c0 5.078-2.03 9.948-5.645 13.538A19.335 19.335 0 0121.04 39.57a19.335 19.335 0 01-13.628-5.61 19.083 19.083 0 01-5.644-13.538c0-5.078 2.03-9.947 5.644-13.538a19.335 19.335 0 0113.627-5.608c2.53 0 5.036.496 7.374 1.458a19.28 19.28 0 016.252 4.15 19.137 19.137 0 014.178 6.211 19.037 19.037 0 011.467 7.327z" fill="#F7931A"/><path fill-rule="evenodd" clip-rule="evenodd" d="M25.175 13.121l-8.043-.003L21.156 6.2l4.019 6.921zm-8.442-.003l-8.043-.003 4.025-6.918 4.018 6.921zm17.082.006l-8.043-.004 4.025-6.918 4.018 6.922zM21.424 6.196l8.043.014-4.033 6.913-4.01-6.927zm-8.51 0l8.043.014-4.033 6.913-4.01-6.927zm4.217 7.317l8.043.047-4.033 24.326-4.01-24.373zm8.641.004l8.027.047L21.497 37.89l4.275-24.373zm-9.238-.004l-8.027.047L20.81 37.886l-4.275-24.373z" fill="#fff"/></svg>