<svg width="98" height="97" fill="none" xmlns="http://www.w3.org/2000/svg"><path d="M97.444 48.56a48.493 48.493 0 01-14.157 34.252A48.278 48.278 0 0149.111 97a48.279 48.279 0 01-34.176-14.188A48.494 48.494 0 01.779 48.56a48.494 48.494 0 0114.156-34.25A48.279 48.279 0 0149.111.12a48.278 48.278 0 0134.176 14.19 48.493 48.493 0 0114.156 34.25z" fill="#F7931A"/><path d="M96.136 48.327a47.067 47.067 0 01-13.74 33.244 46.859 46.859 0 01-33.171 13.77 46.859 46.859 0 01-33.171-13.77 47.067 47.067 0 01-13.74-33.244 47.068 47.068 0 0113.74-33.244 46.859 46.859 0 0133.17-13.77 46.859 46.859 0 0133.172 13.77 47.067 47.067 0 0113.74 33.244z" fill="#fff"/><path d="M94.569 48.13A45.52 45.52 0 0181.28 80.282 45.32 45.32 0 0149.198 93.6a45.32 45.32 0 01-32.082-13.318A45.522 45.522 0 013.827 48.13c0-12.06 4.78-23.625 13.289-32.153A45.32 45.32 0 0149.198 2.658 45.284 45.284 0 0166.561 6.12a45.363 45.363 0 0114.719 9.857 45.478 45.478 0 019.835 14.752A45.558 45.558 0 0194.57 48.13z" fill="#F7931A"/><path fill-rule="evenodd" clip-rule="evenodd" d="M58.936 30.787L40 30.78l9.475-16.43 9.46 16.438zm-19.874-.007l-18.936-.008 9.475-16.43 9.46 16.438zm40.216.014l-18.936-.009 9.476-16.43 9.46 16.439zM50.105 14.34l18.935.032-9.495 16.42-9.44-16.451zm-20.035 0l18.936.031-9.495 16.42-9.44-16.451zM40 31.718l18.935.112-9.495 57.774L40 31.718zm20.343.01l18.897.112-28.963 57.773 10.066-57.885zm-21.75-.009l-18.898.111 28.963 57.774-10.065-57.885z" fill="#fff"/></svg>