<svg width="20" height="20" fill="none" xmlns="http://www.w3.org/2000/svg"><g clip-path="url(#clip0)" fill="#1FC7D3"><path d="M18.944 8.776c-.61-1.944-1.003-2.843-1.183-3.207a23.61 23.61 0 00-.525-.963c-.051-.063-1.323-1.584-4.387-2.71L12.444 3c1.45.532 2.44 1.146 3.055 1.608-1.697-.506-3.714-.815-5.501-.815-1.79 0-3.81.31-5.507.817.568-.422 1.603-1.075 3.06-1.61l-.405-1.103C4.082 3.022 2.811 4.543 2.76 4.606c0 0-.302.487-.556 1.023-.152.32-.546 1.053-1.156 3.16C.282 11.43.01 15.165 0 15.314c.135.296 1.701 2.788 5.915 2.788l1.154-1.672c.953.247 1.936.372 2.929.372.994 0 1.98-.126 2.934-.374l1.148 1.674c4.297 0 5.7-2.408 5.92-2.795-.017-.178-.443-4.58-1.056-6.532zm-1.125 7.118c-.893.632-1.944.978-3.125 1.028l-.592-.864c.817-.308 1.6-.708 2.337-1.199l-.65-.977a10.41 10.41 0 01-2.638 1.263s-1.537.484-3.153.484-3.15-.482-3.15-.482a10.412 10.412 0 01-2.64-1.265l-.652.977c.738.491 1.524.893 2.342 1.2l-.595.863c-1.182-.05-2.232-.395-3.127-1.028a4.861 4.861 0 01-.974-.903c.068-.805.347-3.713.974-5.876.47-1.623.795-2.383.972-2.75 0 0 4.545-1.399 6.85-1.399 2.303 0 5.112.572 6.834 1.392.186.424.518 1.262.992 2.77.5 1.59.872 4.97.965 5.868a4.872 4.872 0 01-.97.898z"/><path d="M6.108 9.904h1.175v1.957H6.108V9.904zm6.605 0h1.174v1.957h-1.174V9.904z"/></g><defs><clipPath id="clip0"><path fill="#fff" d="M0 0h20v20H0z"/></clipPath></defs></svg>