<svg width="20" height="20" fill="none" xmlns="http://www.w3.org/2000/svg"><path d="M.153 8.719c-.649 4.088 1.168 9.019 6.77 10.838.1.019.192.027.278.027.652 0 1.1-.485 1.1-1.084-.08-.435.32-2.201-.766-1.964-2.1.447-2.351-.726-2.671-1.339.905 1.162 2.265 1.133 3.29.683.57-.25.272-.887.542-1.12a.625.625 0 00-.339-1.095c-1.928-.212-3.714-.834-3.714-3.918 0-1.807 1.254-1.968.908-2.724-.012-.028-.277-.628-.037-1.54 1.182.217 1.727 1.066 2.294.913a8.403 8.403 0 014.358 0c.587.158 1.006-.667 2.282-.919.368 1.378-.394 1.715.086 2.231.527.567.794 1.252.794 2.04 0 4.636-3.93 3.297-4.25 4.35a.623.623 0 00.195.66c.508.427.442 1.524.388 2.407-.056.915-.104 1.704.401 2.149.179.158.496.327 1.07.21 5.529-1.775 7.359-6.684 6.72-10.764C18.105-2.38 1.913-2.366.152 8.72zm6.892 9.148l.003.421a9.833 9.833 0 01-1.229-.52c.354.092.76.13 1.226.1zm.308-3.083l-.012.066c-.711.21-1.258.001-1.631-.626l-.001-.002c.567.303 1.15.467 1.644.562zM10 1.667c9.86 0 12.085 13.556 2.89 16.618-.031-.248-.002-.715.018-1.044.049-.792.105-1.716-.177-2.487 4.24-.883 4.594-5.539 2.961-7.613.203-.793.121-2.657-.607-2.886-.172-.054-1.088-.253-2.864.865a9.714 9.714 0 00-4.468 0c-.887-.556-2.885-1.46-3.268-.5-.445 1.118-.34 2.022-.207 2.525-1.449 1.836-1.015 4.911.445 6.355-.827-.396-1.967-.531-2.213.261-.27.865.76.76 1.399 2.337.06.197.173.428.346.657C-1.421 12.117 1.317 1.667 10 1.667z" fill="#1FC7D3"/></svg>