<svg width="20" height="22" fill="none" xmlns="http://www.w3.org/2000/svg"><g clip-path="url(#clip0)"><path d="M19.871 13.107l-8.829-9.945A1.381 1.381 0 0010 2.682c-.397 0-.767.17-1.042.48L.129 13.107a.517.517 0 00.035.72.492.492 0 00.706-.037l2.129-2.398v8.172c0 .843.673 1.529 1.5 1.529h11c.827 0 1.5-.686 1.5-1.53v-8.171l2.129 2.398a.492.492 0 00.706.036.515.515 0 00.035-.72l.002.001zM12 20.073H8v-4.586c0-.281.224-.51.5-.51h3c.276 0 .5.229.5.51v4.586zm4-.51c0 .282-.224.51-.5.51H13v-4.586c0-.843-.673-1.529-1.5-1.529h-3c-.827 0-1.5.686-1.5 1.529v4.586H4.5a.505.505 0 01-.5-.51v-9.297l5.7-6.421A.401.401 0 0110 3.7c.111 0 .218.05.3.144l5.7 6.42v9.299z" fill="#1FC7D3"/></g><defs><clipPath id="clip0"><path fill="#fff" transform="translate(0 .708)" d="M0 0h20v20.384H0z"/></clipPath></defs></svg>