<svg width="20" height="20" fill="none" xmlns="http://www.w3.org/2000/svg"><path d="M10 0C4.477 0 0 4.477 0 10s4.477 10 10 10 10-4.477 10-10C19.994 4.48 15.52.006 10 0zm8.649 13.503l-2.844.491c.325-1.194.501-2.424.523-3.66h2.997a9.273 9.273 0 01-.676 3.17zM.675 10.333h2.997c.022 1.237.198 2.467.523 3.661l-2.844-.49a9.272 9.272 0 01-.676-3.17zm.676-3.836l2.844-.491a14.923 14.923 0 00-.523 3.66H.675a9.271 9.271 0 01.676-3.17zm8.982-1.145a22.93 22.93 0 013.574.326l1.176.203c.362 1.23.556 2.504.579 3.786h-5.329V5.352zm3.687-.33a23.626 23.626 0 00-3.687-.337v-4c1.911.184 3.571 1.934 4.512 4.48l-.825-.144zm-4.353-.337a23.624 23.624 0 00-3.687.336l-.825.143c.94-2.547 2.6-4.297 4.512-4.48v4.001zm-3.573.993a22.925 22.925 0 013.573-.326v4.315H4.338c.023-1.282.217-2.556.579-3.786l1.177-.203zm-1.756 4.655h5.329v4.315a22.917 22.917 0 01-3.574-.326l-1.176-.203a14.309 14.309 0 01-.579-3.786zM5.98 14.98a23.71 23.71 0 003.687.337v4c-1.911-.183-3.571-1.933-4.512-4.48l.825.143zm4.353.337a23.706 23.706 0 003.687-.337l.825-.143c-.94 2.547-2.6 4.297-4.512 4.48v-4zm3.573-.994c-1.18.202-2.375.31-3.573.326v-4.315h5.329a14.309 14.309 0 01-.579 3.786l-1.177.203zm2.422-4.655a14.925 14.925 0 00-.523-3.661l2.844.49a9.272 9.272 0 01.676 3.17h-2.997zm1.983-3.905l-2.726-.47a9.192 9.192 0 00-2.652-4.15 9.378 9.378 0 015.378 4.62zM7.067 1.142a9.192 9.192 0 00-2.652 4.15l-2.726.47a9.378 9.378 0 015.378-4.62zM1.689 14.238l2.726.47a9.192 9.192 0 002.652 4.15 9.378 9.378 0 01-5.378-4.62zm11.244 4.62a9.192 9.192 0 002.652-4.15l2.726-.47a9.378 9.378 0 01-5.378 4.62z" fill="#1FC7D3"/></svg>