<svg width="20" height="20" fill="none" xmlns="http://www.w3.org/2000/svg"><g clip-path="url(#clip0)" fill="#1FC7D3"><path d="M19.648 17.971h-2.465a.352.352 0 01-.352-.352 3.173 3.173 0 00-3.17-3.169 3.173 3.173 0 00-3.168 3.17.352.352 0 01-.353.351H5.915a.352.352 0 110-.704h3.89a3.879 3.879 0 013.857-3.52 3.878 3.878 0 013.857 3.52h2.129a.352.352 0 110 .704z"/><path d="M12.646 15.977c0-.029.02-.048.049-.048h1.225c.697 0 1.026.348 1.026.876 0 .372-.174.585-.382.697v.01c.203.077.44.338.44.74 0 .654-.411.969-1.133.969h-1.176c-.03 0-.049-.02-.049-.049v-3.195zm1.26 1.322c.29 0 .469-.175.469-.431 0-.261-.18-.436-.47-.436h-.658c-.02 0-.03.01-.03.029v.809c0 .02.01.029.03.029h.658zm-.66 1.418h.688c.32 0 .499-.184.499-.46 0-.27-.18-.455-.499-.455h-.687c-.02 0-.03.01-.03.03v.856c0 .02.01.03.03.03z"/><path d="M13.838 16.211a.176.176 0 01-.176-.176v-.352a.176.176 0 11.352 0v.352a.176.176 0 01-.176.176zm0 3.522a.176.176 0 01-.176-.176v-.353a.176.176 0 11.352 0v.353a.176.176 0 01-.176.176zm.899-14.87a.351.351 0 01-.249-.6l.366-.366-.498-.498-.402.402a.352.352 0 01-.498-.498l.65-.651a.352.352 0 01.499 0l.996.996a.352.352 0 010 .498l-.615.614a.35.35 0 01-.249.103zm-13.39 13.39a.351.351 0 01-.249-.103l-.996-.996a.352.352 0 010-.498l9.771-9.77a.352.352 0 01.498 0l.996.995a.352.352 0 010 .498L1.596 18.15a.35.35 0 01-.249.103zm-.498-1.348l.498.498L10.62 8.13l-.498-.498-9.273 9.273z"/><path d="M17.526 13.665a.352.352 0 01-.323-.213c-.834-1.944-2.095-3.927-3.657-5.757l-1.431 1.43a.362.362 0 01-.498 0l-2.49-2.49a.352.352 0 010-.497l1.43-1.431C8.728 3.144 6.744 1.883 4.8 1.05a.352.352 0 01.093-.673c3.29-.433 6.827.884 9.463 3.52 2.635 2.635 3.95 6.172 3.52 9.462a.352.352 0 01-.35.306zm-3.962-6.839h.011a.352.352 0 01.254.12c1.38 1.57 2.546 3.263 3.42 4.959-.059-2.665-1.273-5.392-3.391-7.51-2.118-2.118-4.846-3.333-7.51-3.392 1.695.874 3.388 2.04 4.959 3.42a.352.352 0 01.016.514l-1.45 1.45 1.993 1.992 1.45-1.45a.353.353 0 01.248-.103zM11.197 19.38H2.394a.352.352 0 010-.704h8.803a.352.352 0 110 .704z"/></g><defs><clipPath id="clip0"><path fill="#fff" d="M0 0h20v20H0z"/></clipPath></defs></svg>