<svg width="20" height="20" fill="none" xmlns="http://www.w3.org/2000/svg"><path d="M9.355 7.742H2.58v.645h6.774v-.645z" fill="#1FC7D3"/><path d="M18.387 3.871h-4.194V0H1.29v3.904C.555 4.054 0 4.705 0 5.484v10.968c0 .889.724 1.612 1.613 1.612h2.903v1.29h-1.29V20h13.548v-.645h-1.29v-1.29h2.903c.89 0 1.613-.724 1.613-1.613V5.484c0-.89-.724-1.613-1.613-1.613zm-3.87 2.258a1.615 1.615 0 01-3.227 0c0-.89.724-1.613 1.613-1.613.89 0 1.613.724 1.613 1.613zm-3.585 4.194a2.264 2.264 0 00-.393-.306l1.115-2.008a2.244 2.244 0 001.894.283v2.03h-2.616zm.036 1.612a1.614 1.614 0 01-3.226 0 1.614 1.614 0 013.226 0zm-.297-5.483H3.226V1.935h9.032v2.031a2.261 2.261 0 00-1.613 2.163c0 .11.01.217.026.323zM1.935.645h11.613v3.321a2.244 2.244 0 00-.645-.095v-2.58H2.581v5.806h8.285c.08.168.179.327.297.469L9.945 9.758a2.24 2.24 0 00-2.167.565H1.935V.645zm12.904 18.71H5.16v-1.29h9.678v1.29zm4.516-2.903a.969.969 0 01-.968.967H1.613a.969.969 0 01-.968-.967v-.323h18.71v.323zm0-.968H.645v-10c0-.42.27-.775.645-.909v6.393h6.028c-.14.294-.221.621-.221.967a2.26 2.26 0 002.258 2.258 2.26 2.26 0 002.258-2.258c0-.346-.081-.673-.221-.967h2.802V8.867l.827 1.323a2.255 2.255 0 00-.828 1.745 2.26 2.26 0 002.259 2.258 2.26 2.26 0 002.258-2.258 2.26 2.26 0 00-3.137-2.08l-1.239-1.98a2.255 2.255 0 00.146-3.359h3.907c.534 0 .968.434.968.968v10zm-2.903-5.161a1.614 1.614 0 010 3.225c-.89 0-1.613-.723-1.613-1.613 0-.889.723-1.612 1.613-1.612z" fill="#1FC7D3"/><path d="M9.355 9.032H8.71v.645h.645v-.645zm-1.291 0H2.581v.645h5.483v-.645z" fill="#1FC7D3"/></svg>