<svg width="20" height="20" fill="none" xmlns="http://www.w3.org/2000/svg"><g clip-path="url(#clip0)" fill="#1FC7D3"><path d="M7.022 12.654a1.348 1.348 0 100-2.695 1.348 1.348 0 000 2.695z"/><path d="M20 10.216c0-1.665-1.31-3.02-2.922-3.02-.565 0-1.09.171-1.537.458-1.386-.805-3.134-1.306-5.043-1.374l1.1-3.16 2.28.547c-.008.075-.023.147-.023.225a2.282 2.282 0 002.28 2.278 2.282 2.282 0 002.279-2.278 2.282 2.282 0 00-2.28-2.28A2.27 2.27 0 0014.201 2.7l-3.26-.78-1.52 4.366c-1.9.098-3.63.628-4.99 1.454.027-.019.05-.04.077-.06-.457-.305-1-.485-1.585-.485-1.612 0-2.922 1.354-2.922 3.02 0 1.114.593 2.08 1.465 2.601.358 3.114 4.07 5.572 8.589 5.572 4.548 0 8.278-2.49 8.594-5.633A3.036 3.036 0 0020 10.215zm-3.867-7.588c.697 0 1.264.568 1.264 1.265a1.265 1.265 0 11-1.264-1.265zM2.923 8.21c.23 0 .446.05.65.129-1.103.884-1.843 1.993-2.067 3.218a2.058 2.058 0 01-.493-1.341c0-1.106.857-2.006 1.91-2.006zm7.13 9.165c-4.196 0-7.61-2.264-7.61-5.048 0-2.784 3.414-5.047 7.61-5.047s7.61 2.264 7.61 5.047-3.414 5.048-7.61 5.048zm8.522-5.928c-.249-1.192-.988-2.27-2.073-3.132.183-.062.374-.105.576-.105 1.052 0 1.908.9 1.908 2.006-.001.465-.157.89-.41 1.23z"/><path d="M12.817 12.654a1.348 1.348 0 100-2.695 1.348 1.348 0 000 2.695zm-.217 1.648c-2.854 1.884-5.158.109-5.26.028a.506.506 0 10-.636.79c.019.016 1.335 1.05 3.246 1.05.95 0 2.048-.256 3.208-1.022a.507.507 0 00-.557-.846z"/></g><defs><clipPath id="clip0"><path fill="#fff" d="M0 0h20v20H0z"/></clipPath></defs></svg>