<svg width="20" height="20" fill="none" xmlns="http://www.w3.org/2000/svg"><g clip-path="url(#clip0)" fill="#1FC7D3"><path d="M11.01 19.45H9.635c-.57 0-1.033-.464-1.033-1.033v-.57a7.231 7.231 0 01-2.087-.867l-.404.405c-.39.39-1.071.39-1.461 0l-.972-.972a1.027 1.027 0 01-.303-.73c0-.277.108-.536.303-.731l.404-.405a7.232 7.232 0 01-.867-2.087h-.57a1.033 1.033 0 01-1.032-1.033v-1.374c0-.57.463-1.033 1.033-1.033h.569a7.233 7.233 0 01.867-2.087l-.404-.405a1.026 1.026 0 01-.303-.73c0-.276.108-.536.303-.73l.972-.973c.39-.39 1.07-.39 1.46 0l.405.405a7.235 7.235 0 012.087-.867v-.57c0-.57.463-1.033 1.033-1.033h1.375c.57 0 1.033.464 1.033 1.033v.57c.11.026.222.056.331.088a.323.323 0 11-.18.62 6.695 6.695 0 00-.538-.134.323.323 0 01-.258-.316v-.828a.388.388 0 00-.388-.387H9.635a.388.388 0 00-.388.387v.828a.323.323 0 01-.258.317 6.593 6.593 0 00-2.34.972.323.323 0 01-.407-.04l-.587-.588a.397.397 0 00-.549 0l-.972.972a.385.385 0 000 .548l.587.588a.322.322 0 01.041.405 6.6 6.6 0 00-.972 2.342.323.323 0 01-.316.258h-.828a.388.388 0 00-.388.388v1.374c0 .214.174.388.388.388h.828c.153 0 .285.108.316.258.17.835.496 1.623.972 2.341a.322.322 0 01-.04.406l-.588.588a.385.385 0 000 .548l.972.973a.396.396 0 00.549 0l.587-.588a.323.323 0 01.406-.041 6.595 6.595 0 002.34.973c.151.03.26.163.26.316v.828c0 .213.173.387.387.387h1.375a.388.388 0 00.388-.387v-.828c0-.153.108-.286.258-.316a6.592 6.592 0 002.34-.973.323.323 0 01.407.04l.588.588a.396.396 0 00.548 0l.972-.972a.386.386 0 000-.548l-.587-.588a.322.322 0 01-.041-.406 6.598 6.598 0 00.972-2.34.323.323 0 01.317-.259h.827a.388.388 0 00.388-.388v-1.374A.388.388 0 0018 9.665h-.827a.323.323 0 01-.317-.259 6.591 6.591 0 00-.277-.973.322.322 0 11.605-.225c.098.265.18.537.247.811H18c.569 0 1.032.464 1.032 1.034v1.374c0 .57-.463 1.033-1.033 1.033h-.569a7.233 7.233 0 01-.867 2.087l.404.405c.196.195.303.454.303.73 0 .276-.107.536-.303.73l-.972.973c-.39.39-1.07.39-1.46 0l-.405-.405a7.235 7.235 0 01-2.087.867v.57c0 .57-.463 1.033-1.033 1.033zm-.688-5.941a2.772 2.772 0 01-2.768-2.769 2.772 2.772 0 012.768-2.769 2.772 2.772 0 012.77 2.77 2.772 2.772 0 01-2.77 2.768zm0-4.892A2.126 2.126 0 008.2 10.74c0 1.171.952 2.124 2.123 2.124a2.126 2.126 0 002.124-2.124 2.126 2.126 0 00-2.123-2.123z"/><path d="M15.968 8.644a4.037 4.037 0 01-4.033-4.033A4.037 4.037 0 0115.968.58 4.037 4.037 0 0120 4.611a4.037 4.037 0 01-4.032 4.033zm0-7.42a3.391 3.391 0 00-3.387 3.387A3.391 3.391 0 0015.968 8a3.39 3.39 0 003.387-3.388 3.39 3.39 0 00-3.387-3.387z"/><path d="M14.763 2.829c0-.034.023-.057.056-.057h1.427c.813 0 1.196.406 1.196 1.021 0 .435-.203.683-.445.812v.012c.237.09.513.395.513.863 0 .761-.48 1.128-1.32 1.128h-1.37c-.034 0-.057-.023-.057-.056V2.829zm1.467 1.54c.338 0 .547-.203.547-.502 0-.305-.209-.508-.547-.508h-.768c-.022 0-.034.011-.034.033v.943c0 .022.012.034.034.034h.768zm-.768 1.652h.801c.373 0 .581-.214.581-.536 0-.315-.208-.53-.58-.53h-.802c-.022 0-.034.011-.034.034v.998c0 .023.012.034.034.034z"/><path d="M15.806 3.32a.322.322 0 01-.322-.322v-.645a.322.322 0 11.645 0v.645a.322.322 0 01-.323.323zm0 3.872a.323.323 0 01-.322-.322v-.323a.323.323 0 11.645 0v.323a.322.322 0 01-.323.322zm-5.484 3.548h-3.87a.323.323 0 01-.248-.116l-1.516-1.82H.968a.323.323 0 110-.645h3.87c.096 0 .187.043.248.116l1.517 1.82h3.72a.323.323 0 010 .645zm-3.548 4.84H.968a.323.323 0 110-.646h5.607l.556-1.112a.323.323 0 11.577.289l-.645 1.29a.322.322 0 01-.289.178z"/><path d="M9.032 14.289H7.42a.323.323 0 010-.645h1.613a.322.322 0 110 .645z"/><path d="M9.032 14.289a.322.322 0 01-.245-.532l1.936-2.258a.323.323 0 01.245-.113h3.548a.323.323 0 010 .645h-3.4l-1.839 2.145a.321.321 0 01-.245.113zM1.29 8.482a.645.645 0 11-1.29 0 .645.645 0 011.29 0zm0 6.774a.645.645 0 11-1.29 0 .645.645 0 011.29 0z"/></g><defs><clipPath id="clip0"><path fill="#fff" d="M0 0h20v20H0z"/></clipPath></defs></svg>