<svg width="20" height="20" fill="none" xmlns="http://www.w3.org/2000/svg"><g clip-path="url(#clip0)" fill="#1FC7D3"><path d="M16.35 20H3.682a.333.333 0 01-.333-.333V4.333c0-.184.149-.333.333-.333h12.666c.185 0 .334.149.334.333v15.334c0 .184-.15.333-.334.333zm-12.334-.667h12V4.667h-12v14.666z"/><path d="M16.35 4.667H3.682a.333.333 0 01-.298-.483l.925-1.85L3.385.481A.334.334 0 013.683 0h12.666a.333.333 0 01.299.482l-.926 1.851.926 1.851a.333.333 0 01-.299.483zM4.221 4H15.81l-.758-1.518a.333.333 0 010-.298L15.81.667H4.222l.76 1.517a.334.334 0 010 .298L4.221 4zM6.35 7.667a1 1 0 010-2 1.001 1.001 0 010 2zm0-1.333a.334.334 0 100 .667.334.334 0 000-.667zm7.333 1.333a1.001 1.001 0 010-2 1.001 1.001 0 010 2zm0-1.333a.334.334 0 100 .667.334.334 0 000-.667z"/><path d="M10.016 11c-2.205 0-4-1.794-4-4a.333.333 0 11.667 0 3.337 3.337 0 003.333 3.334A3.337 3.337 0 0013.35 7a.333.333 0 11.666 0c0 2.206-1.794 4-4 4zm0 8a3.67 3.67 0 01-3.666-3.666 3.67 3.67 0 013.666-3.667 3.67 3.67 0 013.667 3.667A3.67 3.67 0 0110.016 19zm0-6.666c-1.654 0-3 1.345-3 3 0 1.654 1.346 3 3 3 1.655 0 3-1.346 3-3 0-1.655-1.345-3-3-3z"/><path d="M9.055 13.778c0-.027.018-.046.046-.046h1.16c.66 0 .971.33.971.83 0 .353-.165.554-.362.66v.009c.193.074.417.32.417.701 0 .619-.39.917-1.072.917H9.1c-.028 0-.046-.019-.046-.046v-3.025zm1.192 1.251c.275 0 .444-.165.444-.408 0-.247-.17-.412-.444-.412h-.624c-.018 0-.027.009-.027.027v.766c0 .018.01.027.027.027h.624zm-.624 1.343h.651c.303 0 .472-.174.472-.435 0-.257-.17-.431-.472-.431h-.65c-.019 0-.028.009-.028.027v.811c0 .019.01.028.027.028z"/><path d="M9.85 14a.167.167 0 01-.167-.167V13.5a.167.167 0 11.333 0v.333A.167.167 0 019.85 14zm0 3.334a.167.167 0 01-.167-.167v-.333a.167.167 0 11.333 0v.333a.167.167 0 01-.166.167z"/></g><defs><clipPath id="clip0"><path fill="#fff" d="M0 0h20v20H0z"/></clipPath></defs></svg>