<svg width="20" height="20" fill="none" xmlns="http://www.w3.org/2000/svg"><path d="M9.841 11.418c-2.8 0-5.08-2.28-5.08-5.08 0-2.8 2.28-5.08 5.08-5.08 2.8 0 5.08 2.28 5.08 5.08 0 2.8-2.28 5.08-5.08 5.08zm0-9.524a4.45 4.45 0 00-4.444 4.444 4.45 4.45 0 004.444 4.445 4.45 4.45 0 004.445-4.445A4.45 4.45 0 009.84 1.894z" fill="#24B4C6"/><path d="M9.841 10.466a4.132 4.132 0 01-4.127-4.127 4.132 4.132 0 014.127-4.127 4.132 4.132 0 014.128 4.127 4.132 4.132 0 01-4.128 4.127zm0-7.62A3.496 3.496 0 006.35 6.34a3.496 3.496 0 003.491 3.49 3.496 3.496 0 003.492-3.492 3.496 3.496 0 00-3.492-3.492z" fill="#24B4C6"/><path d="M8.814 4.584c0-.034.023-.056.056-.056h1.404c.8 0 1.177.4 1.177 1.005 0 .428-.2.672-.438.8v.01c.233.09.505.39.505.85 0 .75-.472 1.11-1.3 1.11H8.87c-.033 0-.056-.022-.056-.055V4.584zm1.444 1.515c.333 0 .538-.2.538-.494 0-.3-.205-.5-.538-.5h-.756c-.021 0-.033.012-.033.034v.927c0 .022.012.033.033.033h.756zm-.756 1.627h.789c.366 0 .572-.211.572-.528 0-.31-.206-.522-.572-.522h-.789c-.021 0-.033.012-.033.034v.982c0 .023.012.034.033.034z" fill="#24B4C6"/><path d="M9.841 5.069a.317.317 0 01-.317-.318v-.635a.317.317 0 11.635 0v.635a.317.317 0 01-.318.318zm0 3.809a.317.317 0 01-.317-.317v-.318a.317.317 0 11.635 0v.318a.317.317 0 01-.318.317zM6.35 18.72H.952a.317.317 0 01-.318-.318v-.71c0-.653.602-1.186 1.347-1.199l1.618-.261a.317.317 0 01.101 0l1.62.261c.744.013 1.346.546 1.346 1.2v.709a.318.318 0 01-.318.317zm-5.08-.636h4.762v-.391c0-.312-.332-.565-.739-.565a.319.319 0 01-.05-.004l-1.592-.257-1.592.257a.319.319 0 01-.05.004c-.408 0-.74.253-.74.565v.391h.001z" fill="#24B4C6"/><path d="M4.517 16.497H2.78a.88.88 0 01-.88-.88V14.23c0-.85.692-1.541 1.542-1.541h.414c.85 0 1.542.69 1.542 1.54v1.39a.88.88 0 01-.88.879zm-1.076-3.175c-.5 0-.906.407-.906.907v1.389c0 .134.11.244.244.244h1.738c.135 0 .245-.11.245-.244v-1.39a.908.908 0 00-.907-.906h-.414zm9.257 5.398H7.301a.317.317 0 01-.317-.318v-.71c0-.653.602-1.186 1.347-1.199l1.618-.261a.318.318 0 01.102 0l1.618.261c.745.013 1.347.546 1.347 1.2v.709a.317.317 0 01-.318.317zm-5.079-.636h4.762v-.391c0-.312-.332-.565-.739-.565a.316.316 0 01-.05-.004L10 16.867l-1.592.257a.315.315 0 01-.05.004c-.408 0-.739.253-.739.565v.391z" fill="#24B4C6"/><path d="M10.866 16.497H9.13a.88.88 0 01-.88-.88V14.23c0-.85.691-1.541 1.542-1.541h.414c.85 0 1.541.69 1.541 1.54v1.39a.88.88 0 01-.88.879zM9.79 13.322c-.5 0-.906.407-.906.907v1.389c0 .134.11.244.245.244h1.737c.135 0 .245-.11.245-.244v-1.39a.908.908 0 00-.907-.906H9.79zm9.258 5.398H13.65a.317.317 0 01-.318-.318v-.71c0-.653.602-1.186 1.347-1.199l1.619-.261a.317.317 0 01.1 0l1.62.261c.744.013 1.346.546 1.346 1.2v.709a.318.318 0 01-.317.317zm-5.08-.636h4.762v-.391c0-.312-.331-.565-.739-.565a.319.319 0 01-.05-.004l-1.592-.257-1.591.257a.319.319 0 01-.051.004c-.407 0-.739.253-.739.565v.391z" fill="#24B4C6"/><path d="M17.216 16.497h-1.738a.88.88 0 01-.88-.88V14.23c0-.85.692-1.541 1.542-1.541h.414c.85 0 1.541.69 1.541 1.54v1.39a.88.88 0 01-.88.879zm-1.076-3.175c-.5 0-.907.407-.907.907v1.389c0 .134.11.244.245.244h1.738c.135 0 .244-.11.244-.244v-1.39a.907.907 0 00-.906-.906h-.414zM1.215 14.593H0v-4.127h1.905V6.02h3.174v.635H2.54V11.1H.636v2.857h.58v.635zm18.785 0h-1.152v-.635h.517V11.1H17.46V6.656h-2.54v-.635h3.175v4.445H20v4.127z" fill="#24B4C6"/></svg>