<svg width="20" height="20" fill="none" xmlns="http://www.w3.org/2000/svg"><g clip-path="url(#clip0)" fill="#1FC7D3"><path d="M16.602 3.04H3.398A3.402 3.402 0 000 6.438v9.467a1.056 1.056 0 001.055 1.054h17.89A1.055 1.055 0 0020 15.905V6.438a3.402 3.402 0 00-3.398-3.398zm0 .547a2.855 2.855 0 012.851 2.851v1.725h-1.706V6.62c0-.538.014-1.076-.181-1.588a3.025 3.025 0 00-1.106-1.445h.142zm-8.165 8.288h3.126a1.525 1.525 0 001.523-1.524v-.08h3.487a1.619 1.619 0 001.318 1.319v1.942a1.62 1.62 0 00-1.318 1.318H3.427a1.62 1.62 0 00-1.318-1.318V11.59a1.62 1.62 0 001.318-1.318h3.487v.08a1.525 1.525 0 001.524 1.523zm4.102-1.524a.978.978 0 01-.976.977H8.437a.978.978 0 01-.976-.977V8.71h5.078v1.642zM2.8 8.163v-1.27h14.402v1.27H2.8zm14.318-2.735c.068.301.096.61.084.918H2.8a3.505 3.505 0 01.09-.943h14.22l.007.025zm-2.383-1.841a2.467 2.467 0 012.155 1.27H3.11a2.467 2.467 0 012.155-1.27h9.468zM.547 6.438a2.855 2.855 0 012.851-2.851h.142a3.024 3.024 0 00-1.106 1.445c-.195.512-.181 1.05-.181 1.588v1.543H.547V6.438zm18.906 9.467a.508.508 0 01-.508.508H1.055a.508.508 0 01-.508-.508V8.709h6.367v1.016H3.177a.273.273 0 00-.273.273 1.069 1.069 0 01-1.068 1.068.272.272 0 00-.274.274v2.442a.274.274 0 00.274.274 1.069 1.069 0 011.068 1.068.273.273 0 00.273.273h13.646a.273.273 0 00.273-.274 1.07 1.07 0 011.068-1.067.273.273 0 00.273-.274V11.34a.272.272 0 00-.273-.274 1.07 1.07 0 01-1.068-1.068.273.273 0 00-.273-.273h-3.737V8.709h6.367v7.196z"/><path d="M9.726 10.171v.361a.273.273 0 10.547 0v-.36a.51.51 0 10-.547 0z"/></g><defs><clipPath id="clip0"><path fill="#fff" d="M0 0h20v20H0z"/></clipPath></defs></svg>