<svg width="20" height="20" fill="none" xmlns="http://www.w3.org/2000/svg"><path d="M.394 16.33a11.606 11.606 0 006.232 1.795c3.258 0 6.244-1.252 8.408-3.524a11.436 11.436 0 003.153-8.063c.785-.672 1.709-1.955 1.709-3.205a.626.626 0 00-.942-.539c-.738.434-1.41.547-2.102.353-1.412-1.377-3.515-1.667-5.286-.712-1.549.833-2.41 2.358-2.332 4.025a10.356 10.356 0 01-6.717-3.669.626.626 0 00-1.022.083c-.812 1.39-.803 3.001-.098 4.302a.65.65 0 00-.543.647c0 1.308.588 2.51 1.536 3.33a.624.624 0 00-.16.647 4.487 4.487 0 002.539 2.72 7.277 7.277 0 01-3.963.662c-.654-.088-.976.79-.412 1.147zm6.403-1.596c.467-.359.219-1.107-.368-1.12a3.26 3.26 0 01-2.56-1.331c.283-.019.575-.062.853-.137.635-.172.605-1.087-.04-1.216a3.208 3.208 0 01-2.43-2.183c.314.077.634.12.953.126.632.004.872-.807.356-1.146-1.163-.766-1.659-2.119-1.33-3.39a11.62 11.62 0 007.697 3.436.624.624 0 00.64-.765c-.396-1.715.562-2.918 1.591-3.472 1.018-.55 2.653-.722 3.907.593.372.393 1.629.408 2.268.259-.287.54-.727 1.052-1.14 1.34a.625.625 0 00-.266.543c.134 2.737-.886 5.46-2.798 7.467-1.927 2.022-4.591 3.136-7.503 3.136-1.159 0-2.295-.188-3.368-.551a8.44 8.44 0 003.538-1.589z" fill="#1FC7D3"/></svg>