<svg width="24" height="24" fill="none" xmlns="http://www.w3.org/2000/svg"><g clip-path="url(#clip0)" fill="#211E34"><path d="M11.832 11.57c1.555 0 2.9-.557 4-1.657s1.658-2.445 1.658-4c0-1.554-.557-2.9-1.657-4s-2.446-1.657-4-1.657c-1.555 0-2.9.557-4 1.657s-1.658 2.446-1.658 4c0 1.555.558 2.9 1.657 4 1.1 1.1 2.446 1.658 4 1.658zM8.806 2.887c.844-.843 1.834-1.254 3.027-1.254 1.192 0 2.182.41 3.026 1.254.844.845 1.255 1.835 1.255 3.027 0 1.193-.41 2.183-1.255 3.027-.844.844-1.834 1.254-3.027 1.254-1.192 0-2.182-.41-3.026-1.254-.844-.844-1.255-1.834-1.255-3.027 0-1.192.41-2.182 1.255-3.027zm12.926 15.431a13.953 13.953 0 00-.19-1.484 11.697 11.697 0 00-.365-1.492 7.373 7.373 0 00-.614-1.392 5.244 5.244 0 00-.925-1.205 4.079 4.079 0 00-1.329-.835 4.591 4.591 0 00-1.696-.307c-.24 0-.472.098-.92.39-.275.18-.598.387-.958.617-.307.196-.724.38-1.239.546a4.923 4.923 0 01-1.516.245 4.927 4.927 0 01-1.516-.245c-.514-.166-.931-.35-1.238-.546a130.82 130.82 0 01-.96-.617c-.447-.292-.679-.39-.918-.39-.611 0-1.182.103-1.697.307a4.076 4.076 0 00-1.329.835c-.349.334-.66.74-.924 1.205a7.385 7.385 0 00-.614 1.392c-.146.46-.27.961-.365 1.492a13.88 13.88 0 00-.19 1.485c-.031.448-.047.915-.047 1.387 0 1.226.39 2.219 1.159 2.95.759.723 1.763 1.09 2.985 1.09h11.31c1.221 0 2.226-.367 2.985-1.09.769-.73 1.158-1.724 1.158-2.95 0-.473-.016-.94-.047-1.388zm-2.06 3.342c-.502.477-1.168.71-2.036.71H6.326c-.869 0-1.535-.233-2.036-.71-.492-.468-.731-1.108-.731-1.954 0-.44.014-.875.043-1.292.029-.41.086-.859.172-1.337.085-.472.193-.914.321-1.315.123-.385.291-.765.5-1.132a3.8 3.8 0 01.68-.89c.235-.227.533-.412.883-.55a3.169 3.169 0 011.084-.21c.048.026.134.075.273.166.283.184.61.394.97.625.407.259.93.493 1.556.695.64.207 1.292.312 1.94.312a6.3 6.3 0 001.938-.312c.627-.202 1.15-.436 1.557-.696.37-.235.686-.44.97-.624.138-.09.224-.14.272-.166.396.011.76.081 1.085.21.35.138.647.323.883.55.253.24.481.54.68.89.209.367.377.748.5 1.132.128.401.236.844.32 1.315.086.479.145.929.173 1.337.029.416.044.85.044 1.292 0 .846-.24 1.486-.731 1.954z"/></g><defs><clipPath id="clip0"><path fill="#fff" transform="translate(.255 .256)" d="M0 0h23.489v23.489H0z"/></clipPath></defs></svg>