<svg width="20" height="20" fill="none" xmlns="http://www.w3.org/2000/svg"><g clip-path="url(#clip0)" fill="#5DD1D9"><path d="M19.835 19.443c-.03-.014-2.986-1.498-5.508-5.083a.293.293 0 10-.48.338c1.75 2.486 3.673 3.982 4.788 4.715H1.36a16.796 16.796 0 001.847-1.422.294.294 0 10-.389-.44C1.341 18.854.174 19.438.163 19.443a.293.293 0 00.13.557h19.413a.293.293 0 00.13-.557z"/><path d="M9.707 14.068v2.683a.294.294 0 10.587 0v-2.683a.294.294 0 00-.587 0zm1.96-.148a.294.294 0 00-.201.364c.023.08.585 1.982 2.6 3.548.136.106.34.068.43-.079a.296.296 0 00-.07-.385c-1.85-1.437-2.387-3.216-2.396-3.246a.293.293 0 00-.363-.201zm-4.205 1.09c-.63 2.06-2.156 3.143-2.171 3.153a.296.296 0 00-.092.38c.082.152.284.2.426.103.07-.048 1.707-1.201 2.399-3.464a.293.293 0 10-.562-.171z"/><path d="M5.636 6.59c.344 0 .684-.072.996-.21.422.274.927.43 1.467.43.215 0 .427-.025.633-.075v2.033a.867.867 0 00-.54.548c-.94 2.865-2.466 5.37-4.535 7.446a.296.296 0 00-.015.399c.11.128.312.135.43.016a19.008 19.008 0 003.042-3.985c.852-.178 1.341-.717 1.67-1.08.058-.064.13-.143.187-.198.028.068.058.153.082.22.145.412.365 1.034.947 1.034s.802-.622.947-1.035c.023-.066.054-.151.082-.22.057.056.128.135.186.198.33.364.82.904 1.674 1.081.099.172.2.342.302.51a.294.294 0 10.5-.308 19.28 19.28 0 01-1.884-4.078.867.867 0 00-.54-.548V6.971c.322-.068.62-.198.882-.379.426.224.903.341 1.39.341 1.627 0 2.95-1.291 2.95-2.879 0-1.587-1.323-2.879-2.95-2.879-.246 0-.492.03-.73.09a2.46 2.46 0 00-1.88.056A2.649 2.649 0 008.62.001c-1.215 0-2.24.804-2.55 1.895a2.479 2.479 0 00-.433-.038c-1.336 0-2.422 1.061-2.422 2.366 0 1.305 1.086 2.366 2.422 2.366zm6.833 5.828c-.36-.197-.615-.476-.819-.7-.245-.271-.477-.527-.796-.438-.253.07-.349.343-.46.658-.09.256-.228.643-.394.643s-.303-.387-.394-.643c-.111-.315-.207-.588-.46-.658-.32-.089-.551.167-.796.437-.203.224-.457.502-.815.699.476-.927.881-1.9 1.215-2.917a.287.287 0 01.276-.194h1.948c.127 0 .238.078.276.194.332 1.01.74 1.988 1.219 2.919zm3.433-8.364c0 1.264-1.06 2.292-2.362 2.292-.319 0-.631-.062-.921-.182.138-.164.255-.348.345-.548a2.353 2.353 0 001.396-2.144c0-.67-.288-1.277-.75-1.708 1.27.037 2.292 1.05 2.292 2.29zM5.636 2.445c.114 0 .227.01.339.03a2.406 2.406 0 00-.001.206c-.185.242-.323.51-.412.8a.294.294 0 00.561.172c.078-.252.204-.483.376-.689.093-.111.06-.244.06-.377 0-1.102.924-1.999 2.06-1.999.843 0 1.593.49 1.91 1.247.069.163.274.23.425.136a1.87 1.87 0 01.984-.278c1.012 0 1.835.798 1.835 1.78 0 .725-.448 1.372-1.141 1.646a.294.294 0 00-.166.167 1.84 1.84 0 01-1.522 1.142.294.294 0 00-.264.292v1.998H9.32V6.331a.296.296 0 00-.407-.27 2.102 2.102 0 01-.814.162c-.968 0-1.794-.638-2.01-1.551a.294.294 0 00-.57.135c.102.434.31.82.595 1.134-.155.04-.316.062-.478.062-1.012 0-1.835-.798-1.835-1.779 0-.981.823-1.779 1.835-1.779z"/></g><defs><clipPath id="clip0"><path fill="#fff" d="M0 0h20v20H0z"/></clipPath></defs></svg>