<svg width="20" height="20" fill="none" xmlns="http://www.w3.org/2000/svg"><g clip-path="url(#clip0)"><path d="M15.835 15.792a.293.293 0 00-.404.09 3.945 3.945 0 01-3.346 1.842h-7.54a3.964 3.964 0 01-3.96-3.96V6.743a.293.293 0 00-.585 0v7.021a4.55 4.55 0 004.546 4.546h7.538c1.566 0 3.002-.79 3.841-2.114a.293.293 0 00-.09-.404zM13.26 8.007l-2.233 2.234a.293.293 0 00.414.414l2.234-2.234a.293.293 0 00-.415-.414zm6.317-4.882l-1.021-1.02a1.451 1.451 0 00-2.05 0l-1.06 1.06a4.518 4.518 0 00-3.36-1.485h-7.54a4.554 4.554 0 00-2.874 1.024A4.56 4.56 0 00.1 5.266a.293.293 0 10.573.123 3.967 3.967 0 013.871-3.124h7.54c1.134 0 2.194.476 2.945 1.314l-3.116 3.116h-8.17a.293.293 0 100 .586h7.584L9.924 8.685h-6.18a.293.293 0 100 .586h5.594L7.52 11.09a6.587 6.587 0 00-1.28 1.805l-.834 1.732c-.23.48-.137 1.033.24 1.409a1.224 1.224 0 001.408.24l.84-.405h.001l.892-.43a6.59 6.59 0 001.805-1.28l5.452-5.453v5.057c0 .321-.038.64-.114.949a.293.293 0 10.569.14c.087-.355.131-.72.131-1.089V8.121l.815-.814 2.131-2.131a1.451 1.451 0 000-2.05zM6.8 15.746a.635.635 0 01-.74-.125.635.635 0 01-.126-.74l.247-.514a7.234 7.234 0 011.133 1.132l-.514.247zm1.733-.833l-.678.326a7.79 7.79 0 00-1.413-1.413l.326-.678a6 6 0 01.843-1.294l2.216 2.216a6.007 6.007 0 01-1.294.843zm1.721-1.244l-2.242-2.243 6.569-6.569L16.823 7.1l-6.569 6.569zm6.984-6.984l-2.243-2.242.723-.724 2.243 2.243-.723.723zm1.924-1.924l-.787.787-2.242-2.243.786-.786a.861.861 0 011.222 0l1.02 1.02a.865.865 0 010 1.222zm-15.417.53h9.14a.293.293 0 100-.587h-9.14a.293.293 0 100 .586z" fill="#1FC7D3"/></g><defs><clipPath id="clip0"><path fill="#fff" d="M0 0h20v20H0z"/></clipPath></defs></svg>