<svg width="20" height="20" fill="none" xmlns="http://www.w3.org/2000/svg"><path d="M16.023 2.653H3.977A3.988 3.988 0 000 6.643v6.714c0 2.2 1.784 3.99 3.977 3.99h12.046A3.988 3.988 0 0020 13.357V6.643c0-2.2-1.784-3.99-3.977-3.99zm3.16 10.705a3.17 3.17 0 01-3.16 3.173H3.977a3.17 3.17 0 01-3.16-3.173V6.643a3.17 3.17 0 013.16-3.173h12.046a3.17 3.17 0 013.16 3.173v6.715z" fill="#1FC7D3"/><path d="M13.616 9.852L7.961 6.54a.409.409 0 00-.614.352v6.625a.409.409 0 00.614.352l5.655-3.312a.408.408 0 000-.705zm-5.453 2.952v-5.2l4.44 2.6-4.44 2.6z" fill="#1FC7D3"/></svg>