<svg width="20" height="20" viewBox="0 0 20 20" fill="none" xmlns="http://www.w3.org/2000/svg">
<g clip-path="url(#clip0)">
<path d="M19.5539 0.464241C19.2629 0.168346 18.8739 0.00349679 18.4589 5.55047e-05L18.4458 0C17.5962 0 16.8991 0.691366 16.8921 1.54114C16.8888 1.95621 17.0471 2.34779 17.3382 2.64369C17.6294 2.93958 18.0182 3.10443 18.4333 3.10787L18.4463 3.10793C19.296 3.10793 19.993 2.41656 20 1.56679C20.0034 1.15172 19.845 0.760137 19.5539 0.464241ZM18.4463 2.53384L18.438 2.53379C18.1763 2.53162 17.9311 2.42766 17.7476 2.24111C17.564 2.05451 17.4641 1.80762 17.4663 1.54592C17.4707 1.01007 17.9101 0.57414 18.4458 0.57414L18.4541 0.574196C18.7158 0.576361 18.961 0.680321 19.1445 0.866872C19.3281 1.05348 19.428 1.30036 19.4258 1.56207C19.4214 2.09791 18.982 2.53384 18.4463 2.53384Z" fill="#4170C0"/>
<path d="M1.56678 8.44634L1.55374 8.44629C0.704019 8.44629 0.00704702 9.13766 5.34327e-05 9.98749C-0.00699566 10.8443 0.684315 11.5471 1.54114 11.5542H1.55413C2.40385 11.5542 3.10088 10.8629 3.10787 10.0131C3.11492 9.15625 2.42361 8.45339 1.56678 8.44634ZM1.55413 10.9801L1.54586 10.98C1.00558 10.9756 0.569642 10.5324 0.574083 9.99215C0.578523 9.45631 1.01795 9.02037 1.55368 9.02037H1.56196C2.10224 9.02481 2.53817 9.46802 2.53373 10.0083C2.52935 10.5441 2.08992 10.9801 1.55413 10.9801Z" fill="#4170C0"/>
<path d="M7.41469 2.59869L7.40164 2.59863C6.55192 2.59863 5.85489 3.29 5.84795 4.13977C5.8409 4.9966 6.53222 5.69945 7.38904 5.7065L7.40209 5.70656C8.25175 5.70656 8.94878 5.01519 8.95578 4.16542C8.96282 3.30854 8.27151 2.60568 7.41469 2.59869ZM7.40203 5.13247L7.39376 5.13242C6.85348 5.12798 6.41754 4.68477 6.42198 4.14455C6.42642 3.60871 6.86586 3.17277 7.40159 3.17277L7.40986 3.17283C7.95014 3.17727 8.38607 3.62047 8.38163 4.1607C8.37725 4.69654 7.93782 5.13247 7.40203 5.13247Z" fill="#4170C0"/>
<path d="M11.6376 6.82134L11.6246 6.82129C10.7748 6.82129 10.0778 7.51265 10.0709 8.36243C10.0638 9.21925 10.7552 9.92211 11.612 9.92916L11.625 9.92921C12.4747 9.92921 13.1717 9.23785 13.1787 8.38807C13.1857 7.53119 12.4944 6.82839 11.6376 6.82134ZM11.6249 9.35513L11.6167 9.35507C11.0764 9.35063 10.6404 8.90743 10.6449 8.3672C10.6493 7.83136 11.0887 7.39543 11.6244 7.39543L11.6327 7.39548C12.173 7.39992 12.6089 7.84313 12.6044 8.38335C12.6001 8.91919 12.1607 9.35513 11.6249 9.35513Z" fill="#4170C0"/>
<path d="M17.339 2.24046L12.3159 7.27637L12.7224 7.68179L17.7455 2.64588L17.339 2.24046Z" fill="#4170C0"/>
<path d="M8.50042 4.84602L8.09448 5.25195L10.5276 7.68505L10.9335 7.27911L8.50042 4.84602Z" fill="#4170C0"/>
<path d="M6.303 4.84421L2.24683 8.90039L2.65276 9.30633L6.70894 5.25015L6.303 4.84421Z" fill="#4170C0"/>
<path d="M16.4697 5.91211V19.9999H19.9999V5.91211H16.4697ZM17.0439 19.4257L17.0438 6.4862H19.4259V19.4257H17.0439Z" fill="#4170C0"/>
<path d="M10.9797 11.8242V19.9998H14.5099V11.8242H10.9797ZM13.9359 19.4256H11.5539V12.3984H13.9359V19.4256Z" fill="#4170C0"/>
<path d="M5.48975 11.4023V20.0002H9.01996V11.4023H5.48975ZM8.44593 19.426H6.06389V11.9765H8.44593V19.426Z" fill="#4170C0"/>
<path d="M0 13.5137V20H3.53021L3.53026 13.5137H0ZM2.95612 19.4259H0.574084V14.0877H2.95612V19.4259Z" fill="#4170C0"/>
</g>
<defs>
<clipPath id="clip0">
<rect width="20" height="20" fill="white"/>
</clipPath>
</defs>
</svg>
