<svg width="20" height="20" viewBox="0 0 20 20" fill="none" xmlns="http://www.w3.org/2000/svg">
<g clip-path="url(#clip0)">
<path d="M4.54834 16.4134L4.05297 15.5891C3.89203 15.3217 3.84516 15.0085 3.92073 14.7072C3.99611 14.4067 4.18449 14.1531 4.45115 13.9929C5.00065 13.663 5.71709 13.8407 6.04751 14.3907L7.02735 16.0216L6.48293 16.3484L5.50328 14.7177C5.35306 14.4681 5.02735 14.3866 4.77813 14.5373C4.6566 14.6102 4.57086 14.7255 4.53653 14.8616C4.5022 14.998 4.52381 15.1404 4.5972 15.2625L5.09239 16.0868L4.54834 16.4134Z" fill="#1FC7D3"/>
<path d="M10.1369 19.235C8.63831 19.235 7.99599 18.9972 7.78418 18.8907L4.12407 18.4072L2.06014 17.2966C1.517 17.0043 1.29775 16.3409 1.54879 15.789L1.54661 15.7878L1.58221 15.7211L1.58439 15.7224C1.9041 15.2074 2.57785 15.0201 3.12117 15.3073L4.47521 16.0219L7.55748 15.9658L8.00762 15.6828C7.42342 15.3463 6.56384 14.7558 6.42234 14.1271C6.36512 13.8731 6.42252 13.6306 6.58782 13.4254C7.3355 12.4977 10.6539 14.1661 12.1262 14.9747L15.5863 14.9825L15.5849 15.6174L11.9622 15.609L11.8908 15.5696C8.82741 13.8775 7.23178 13.6388 7.0821 13.8243C7.03868 13.8779 7.02742 13.9238 7.04177 13.9876C7.13659 14.4105 8.11461 15.053 8.77873 15.3738L9.29462 15.623L7.74604 16.5977L4.32335 16.66L2.8249 15.8691C2.57731 15.7383 2.27158 15.8221 2.12535 16.055C2.01382 16.3051 2.11427 16.6048 2.36096 16.7376L4.32244 17.7928L7.99726 18.2788L8.05739 18.3178C8.06484 18.3218 9.53749 19.1231 15.3854 17.9828L15.5069 18.6061C13.0419 19.086 11.3217 19.235 10.1369 19.235Z" fill="#1FC7D3"/>
<path d="M10.0162 6.98417C8.09055 6.98417 6.52417 5.4176 6.52417 3.49208C6.52417 1.56657 8.09055 0 10.0162 0C11.9418 0 13.5083 1.56657 13.5083 3.49208C13.5083 5.4176 11.9418 6.98417 10.0162 6.98417ZM10.0162 0.634875C8.44078 0.634875 7.15904 1.91643 7.15904 3.49208C7.15904 5.06755 8.44078 6.34929 10.0162 6.34929C11.5915 6.34929 12.8733 5.06755 12.8733 3.49208C12.8733 1.91643 11.5915 0.634875 10.0162 0.634875Z" fill="#1FC7D3"/>
<path d="M12.3972 9.84129H7.63515C7.02262 9.84129 6.52417 9.34284 6.52417 8.73031C6.52417 8.11759 7.02262 7.61914 7.63515 7.61914H12.3972C13.0097 7.61914 13.5083 8.11759 13.5083 8.73031C13.5083 9.34284 13.0097 9.84129 12.3972 9.84129ZM7.63515 8.25402C7.37267 8.25402 7.15904 8.46764 7.15904 8.73031C7.15904 8.99279 7.37267 9.20642 7.63515 9.20642H12.3972C12.6598 9.20642 12.8733 8.99279 12.8733 8.73031C12.8733 8.46764 12.6598 8.25402 12.3972 8.25402H7.63515Z" fill="#1FC7D3"/>
<path d="M12.3972 13.0163H7.63515C7.02262 13.0163 6.52417 12.5177 6.52417 11.9051C6.52417 11.2926 7.02262 10.7939 7.63515 10.7939H12.3972C13.0097 10.7939 13.5083 11.2926 13.5083 11.9051C13.5083 12.5177 13.0097 13.0163 12.3972 13.0163ZM7.63515 11.429C7.37267 11.429 7.15904 11.6424 7.15904 11.9051C7.15904 12.1678 7.37267 12.3812 7.63515 12.3812H12.3972C12.6598 12.3812 12.8733 12.1678 12.8733 11.9051C12.8733 11.6424 12.6598 11.429 12.3972 11.429H7.63515Z" fill="#1FC7D3"/>
<path d="M12.3972 11.4284H7.63515C7.02262 11.4284 6.52417 10.9298 6.52417 10.3172C6.52417 9.70451 7.02262 9.20605 7.63515 9.20605H12.3972C13.0097 9.20605 13.5083 9.70451 13.5083 10.3172C13.5083 10.9298 13.0097 11.4284 12.3972 11.4284ZM7.63515 9.84093C7.37267 9.84093 7.15904 10.0546 7.15904 10.3172C7.15904 10.5799 7.37267 10.7933 7.63515 10.7933H12.3972C12.6598 10.7933 12.8733 10.5799 12.8733 10.3172C12.8733 10.0546 12.6598 9.84093 12.3972 9.84093H7.63515Z" fill="#1FC7D3"/>
<path d="M9.10083 2.01155C9.10083 1.98521 9.11827 1.96777 9.14443 1.96777H10.2487C10.877 1.96777 11.1738 2.28185 11.1738 2.75778C11.1738 3.09384 11.0167 3.28566 10.8291 3.38612V3.39484C11.0124 3.46495 11.2263 3.70056 11.2263 4.06259C11.2263 4.65187 10.8554 4.93561 10.2049 4.93561H9.14443C9.11827 4.93561 9.10083 4.91817 9.10083 4.89183V2.01155ZM10.2354 3.20283C10.4976 3.20283 10.6589 3.0457 10.6589 2.81446C10.6589 2.57885 10.4976 2.42154 10.2354 2.42154H9.64197C9.62435 2.42154 9.61563 2.43026 9.61563 2.4477V3.17685C9.61563 3.19429 9.62435 3.20283 9.64197 3.20283H10.2354ZM9.64197 4.48184H10.2616C10.5499 4.48184 10.7112 4.31599 10.7112 4.06695C10.7112 3.82263 10.5499 3.65678 10.2616 3.65678H9.64197C9.62435 3.65678 9.61563 3.6655 9.61563 3.68312V4.45532C9.61563 4.47312 9.62435 4.48184 9.64197 4.48184Z" fill="#1FC7D3"/>
<path d="M10.1747 2.22179C10.0871 2.22179 10.0161 2.15076 10.0161 2.06321V1.74568C10.0161 1.65794 10.0871 1.58691 10.1747 1.58691C10.2624 1.58691 10.3334 1.65794 10.3334 1.74568V2.06321C10.3334 2.15076 10.2624 2.22179 10.1747 2.22179Z" fill="#1FC7D3"/>
<path d="M10.1747 5.39678C10.0871 5.39678 10.0161 5.32575 10.0161 5.23802V4.92048C10.0161 4.83275 10.0871 4.76172 10.1747 4.76172C10.2624 4.76172 10.3334 4.83275 10.3334 4.92048V5.23802C10.3334 5.32575 10.2624 5.39678 10.1747 5.39678Z" fill="#1FC7D3"/>
<path d="M18.2883 20.0001H15.4328C15.2575 20.0001 15.1152 19.8582 15.1152 19.6828V14.2804C15.1152 14.1049 15.2575 13.9629 15.4328 13.9629H18.2883C18.4636 13.9629 18.6057 14.1049 18.6057 14.2804V19.6828C18.6057 19.8582 18.4636 20.0001 18.2883 20.0001ZM15.7503 19.3652H17.9708V14.5978H15.7503V19.3652Z" fill="#1FC7D3"/>
</g>
<defs>
<clipPath id="clip0">
<rect width="20" height="20" fill="white"/>
</clipPath>
</defs>
</svg>
