<svg width="20" height="20" viewBox="0 0 20 20" fill="none" xmlns="http://www.w3.org/2000/svg">
<path d="M7.19273 16.6665C4.12228 16.6665 0.859375 15.8488 0.859375 14.3333V12.3332C0.859375 12.149 1.00834 12 1.19259 12C1.37684 12 1.52599 12.149 1.52599 12.3332V14.3333C1.52599 15.0292 3.68187 15.9999 7.19273 15.9999C7.83741 15.9999 8.4697 15.9654 9.07185 15.8977C9.25323 15.8774 9.41994 16.009 9.44034 16.192C9.46094 16.3749 9.32915 16.5395 9.14623 16.5605C8.51948 16.6306 7.86221 16.6665 7.19273 16.6665Z" fill="#1FC7D3"/>
<path d="M7.19273 14.6667C4.12228 14.6667 0.859375 13.849 0.859375 12.3333V10.3332C0.859375 10.149 1.00834 10 1.19259 10C1.37684 10 1.52599 10.149 1.52599 10.3332V12.3333C1.52599 13.0293 3.68187 13.9999 7.19273 13.9999C7.70275 13.9999 8.20839 13.9782 8.69534 13.9356C8.88378 13.9164 9.04076 14.0554 9.05659 14.2383C9.0728 14.4218 8.937 14.5838 8.75389 14.5996C8.2473 14.6442 7.72202 14.6667 7.19273 14.6667Z" fill="#1FC7D3"/>
<path d="M13.1928 10C13.0085 10 12.8594 9.85088 12.8594 9.66663V8.3334C12.8594 8.14915 13.0085 8 13.1928 8C13.377 8 13.5262 8.14915 13.5262 8.3334V9.66663C13.5262 9.85088 13.377 10 13.1928 10Z" fill="#1FC7D3"/>
<path d="M7.19273 12.6667C4.12228 12.6667 0.859375 11.849 0.859375 10.3333V8.33341C0.859375 8.14916 1.00834 8 1.19259 8C1.37684 8 1.52599 8.14916 1.52599 8.33341V10.3333C1.52599 11.0293 3.68187 12.0001 7.19273 12.0001C7.92896 12.0001 8.6467 11.9555 9.32667 11.8672C9.50958 11.8418 9.67667 11.9721 9.70013 12.1546C9.72378 12.3371 9.59522 12.5046 9.41269 12.5279C8.70449 12.6202 7.95738 12.6667 7.19273 12.6667Z" fill="#1FC7D3"/>
<path d="M7.19273 10.6667C4.12228 10.6667 0.859375 9.84903 0.859375 8.33345V6.3334C0.859375 6.14915 1.00834 6 1.19259 6C1.37684 6 1.52599 6.14915 1.52599 6.3334V8.33345C1.52599 9.02944 3.68187 10.0001 7.19273 10.0001C10.7034 10.0001 12.8593 9.02944 12.8593 8.33345V6.3334C12.8593 6.14915 13.0084 6 13.1927 6C13.3769 6 13.5261 6.14915 13.5261 6.3334V8.33345C13.5261 9.84903 10.263 10.6667 7.19273 10.6667Z" fill="#1FC7D3"/>
<path d="M7.19273 8.66651C4.12228 8.66651 0.859375 7.84883 0.859375 6.33326V4.33321C0.859375 4.14896 1.00834 4 1.19259 4C1.37684 4 1.52599 4.14896 1.52599 4.33321V6.33326C1.52599 7.02925 3.68187 7.99989 7.19273 7.99989C10.7034 7.99989 12.8593 7.02925 12.8593 6.33326V4.33321C12.8593 4.14896 13.0084 4 13.1927 4C13.3769 4 13.5261 4.14896 13.5261 4.33321V6.33326C13.5261 7.84883 10.263 8.66651 7.19273 8.66651Z" fill="#1FC7D3"/>
<path d="M7.19273 6.66671C4.12228 6.66671 0.859375 5.84903 0.859375 4.33326V2.33321C0.859375 2.14896 1.00834 2 1.19259 2C1.37684 2 1.52599 2.14896 1.52599 2.33321V4.33326C1.52599 5.02925 3.68187 5.9999 7.19273 5.9999C10.7034 5.9999 12.8593 5.02925 12.8593 4.33326V2.33321C12.8593 2.14896 13.0084 2 13.1927 2C13.3769 2 13.5261 2.14896 13.5261 2.33321V4.33326C13.5261 5.84903 10.263 6.66671 7.19273 6.66671Z" fill="#1FC7D3"/>
<path d="M7.19273 4.66671C4.12228 4.66671 0.859375 3.84903 0.859375 2.33326C0.859375 0.81768 4.12228 0 7.19273 0C10.263 0 13.5261 0.81768 13.5261 2.33326C13.5261 3.84903 10.263 4.66671 7.19273 4.66671ZM7.19273 0.666618C3.68187 0.666618 1.52599 1.63727 1.52599 2.33326C1.52599 3.02925 3.68187 4.00009 7.19273 4.00009C10.7034 4.00009 12.8593 3.02925 12.8593 2.33326C12.8593 1.63727 10.7034 0.666618 7.19273 0.666618Z" fill="#1FC7D3"/>
<path d="M13.8592 19.9997C10.9185 19.9997 8.52588 17.6071 8.52588 14.6663C8.52588 11.7256 10.9185 9.33301 13.8592 9.33301C16.8 9.33301 19.1925 11.7256 19.1925 14.6663C19.1925 17.6071 16.8 19.9997 13.8592 19.9997ZM13.8592 9.99963C11.286 9.99963 9.1925 12.0929 9.1925 14.6663C9.1925 17.2395 11.286 19.3329 13.8592 19.3329C16.4324 19.3329 18.5259 17.2395 18.5259 14.6663C18.5259 12.0929 16.4324 9.99963 13.8592 9.99963Z" fill="#1FC7D3"/>
<path d="M13.8594 18.9998C11.4701 18.9998 9.52612 17.0558 9.52612 14.6665C9.52612 12.2772 11.4701 10.333 13.8594 10.333C16.2488 10.333 18.1927 12.2772 18.1927 14.6665C18.1927 17.0558 16.2488 18.9998 13.8594 18.9998ZM13.8594 10.9998C11.8376 10.9998 10.1927 12.6445 10.1927 14.6665C10.1927 16.6883 11.8376 18.333 13.8594 18.333C15.8812 18.333 17.5261 16.6883 17.5261 14.6665C17.5261 12.6445 15.8812 10.9998 13.8594 10.9998Z" fill="#1FC7D3"/>
<path d="M12.781 12.824C12.781 12.7887 12.8045 12.7656 12.8394 12.7656H14.3139C15.1534 12.7656 15.5495 13.1852 15.5495 13.8208C15.5495 14.2696 15.3399 14.5257 15.0893 14.6598V14.6716C15.3342 14.7651 15.6195 15.0798 15.6195 15.5635C15.6195 16.3503 15.1242 16.7293 14.2556 16.7293H12.8394C12.8045 16.7293 12.781 16.7058 12.781 16.6709V12.824ZM14.2966 14.4151C14.6462 14.4151 14.8621 14.2053 14.8621 13.8965C14.8621 13.5818 14.6462 13.3718 14.2966 13.3718H13.5037C13.4806 13.3718 13.4688 13.3834 13.4688 13.4065V14.3802C13.4688 14.4033 13.4806 14.4151 13.5037 14.4151H14.2966ZM13.5037 16.1229H14.3315C14.7162 16.1229 14.9317 15.9013 14.9317 15.5692C14.9317 15.2427 14.7162 15.0211 14.3315 15.0211H13.5037C13.4806 15.0211 13.4688 15.0329 13.4688 15.0564V16.0878C13.4688 16.1113 13.4806 16.1229 13.5037 16.1229Z" fill="#1FC7D3"/>
<path d="M13.8593 13.3332C13.6751 13.3332 13.5261 13.1841 13.5261 12.9998V12.3332C13.5261 12.149 13.6751 12 13.8593 12C14.0436 12 14.1928 12.149 14.1928 12.3332V12.9998C14.1928 13.1841 14.0436 13.3332 13.8593 13.3332Z" fill="#1FC7D3"/>
<path d="M13.8593 17.334C13.6751 17.334 13.5261 17.1849 13.5261 17.0006V16.6672C13.5261 16.4829 13.6751 16.334 13.8593 16.334C14.0436 16.334 14.1928 16.4829 14.1928 16.6672V17.0006C14.1928 17.1849 14.0436 17.334 13.8593 17.334Z" fill="#1FC7D3"/>
</svg>
