<svg width="36" height="36" viewBox="0 0 36 36" fill="none" xmlns="http://www.w3.org/2000/svg">
<path d="M35.7094 18.1536C35.7094 22.8867 33.8324 27.4259 30.4911 30.7727C27.1499 34.1194 22.6183 35.9996 17.8931 35.9996C13.1679 35.9996 8.63618 34.1194 5.29496 30.7727C1.95374 27.4259 0.0766601 22.8867 0.0766602 18.1536C0.0766602 13.4206 1.95374 8.88137 5.29496 5.53459C8.63618 2.18782 13.1679 0.307617 17.8931 0.307617C22.6183 0.307617 27.1499 2.18782 30.4911 5.53459C33.8324 8.88137 35.7094 13.4206 35.7094 18.1536Z" fill="#F7931A"/>
<path d="M35.2273 18.0672C35.2273 22.6611 33.4055 27.0668 30.1625 30.3151C26.9196 33.5635 22.5212 35.3884 17.935 35.3884C13.3487 35.3884 8.95035 33.5635 5.7074 30.3151C2.46445 27.0668 0.642578 22.6611 0.642578 18.0672C0.642578 13.4734 2.46445 9.06768 5.7074 5.81934C8.95035 2.57099 13.3487 0.746094 17.935 0.746094C22.5212 0.746094 26.9196 2.57099 30.1625 5.81934C33.4055 9.06768 35.2273 13.4734 35.2273 18.0672Z" fill="white"/>
<path d="M34.6496 17.9947C34.6496 22.4377 32.8876 26.6988 29.7511 29.8405C26.6146 32.9822 22.3606 34.7472 17.9249 34.7472C13.4892 34.7472 9.23524 32.9822 6.09875 29.8405C2.96226 26.6988 1.2002 22.4377 1.2002 17.9947C1.2002 13.5517 2.96226 9.29059 6.09875 6.14888C9.23524 3.00718 13.4892 1.24219 17.9249 1.24219C20.1212 1.24219 22.296 1.6755 24.3252 2.5174C26.3543 3.35929 28.198 4.59327 29.7511 6.14888C31.3041 7.7045 32.536 9.55128 33.3765 11.5838C34.217 13.6163 34.6496 15.7947 34.6496 17.9947Z" fill="#F7931A"/>
<path fill-rule="evenodd" clip-rule="evenodd" d="M21.5146 11.6059L14.5346 11.6028L18.0273 5.54944L21.5146 11.6059Z" fill="white"/>
<path fill-rule="evenodd" clip-rule="evenodd" d="M14.1885 11.603L7.20844 11.5999L10.7012 5.54651L14.1885 11.603Z" fill="white"/>
<path fill-rule="evenodd" clip-rule="evenodd" d="M29.0132 11.6079L22.0331 11.6047L25.5259 5.55139L29.0132 11.6079Z" fill="white"/>
<path fill-rule="evenodd" clip-rule="evenodd" d="M18.2595 5.54601L25.2395 5.55771L21.7393 11.6068L18.2595 5.54601Z" fill="white"/>
<path fill-rule="evenodd" clip-rule="evenodd" d="M10.8742 5.54601L17.8542 5.55771L14.3541 11.6068L10.8742 5.54601Z" fill="white"/>
<path fill-rule="evenodd" clip-rule="evenodd" d="M14.5343 11.9492L21.5143 11.9904L18.0142 33.2753L14.5343 11.9492Z" fill="white"/>
<path fill-rule="evenodd" clip-rule="evenodd" d="M22.0333 11.9522L28.9994 11.9933L18.3229 33.2783L22.0333 11.9522Z" fill="white"/>
<path fill-rule="evenodd" clip-rule="evenodd" d="M14.0156 11.9492L7.04945 11.9904L17.7259 33.2753L14.0156 11.9492Z" fill="white"/>
</svg>
