<svg width="42" height="41" viewBox="0 0 42 41" fill="none" xmlns="http://www.w3.org/2000/svg">
<path d="M41.5305 20.6044C41.5305 26.0136 39.3676 31.2013 35.5177 35.0262C31.6678 38.8511 26.4462 40.9999 21.0016 40.9999C15.557 40.9999 10.3354 38.8511 6.48544 35.0262C2.63552 31.2013 0.472656 26.0136 0.472656 20.6044C0.472656 15.1952 2.63552 10.0076 6.48544 6.18267C10.3354 2.35778 15.557 0.208984 21.0016 0.208984C26.4462 0.208985 31.6678 2.35778 35.5177 6.18267C39.3676 10.0076 41.5305 15.1952 41.5305 20.6044Z" fill="#F7931A"/>
<path d="M40.9748 20.506C40.9748 25.7561 38.8755 30.7912 35.1388 34.5036C31.4021 38.216 26.3341 40.3016 21.0496 40.3016C15.7652 40.3016 10.6971 38.216 6.96045 34.5036C3.22376 30.7912 1.12451 25.7561 1.12451 20.506C1.12451 15.2559 3.22376 10.2208 6.96045 6.50844C10.6971 2.79605 15.7652 0.710449 21.0496 0.710449C26.3341 0.710449 31.4021 2.79605 35.1388 6.50844C38.8755 10.2208 40.9748 15.2559 40.9748 20.506Z" fill="white"/>
<path d="M40.3097 20.4231C40.3097 25.5008 38.2793 30.3706 34.6653 33.9611C31.0513 37.5517 26.1496 39.5688 21.0386 39.5688C15.9276 39.5688 11.026 37.5517 7.41194 33.9611C3.79791 30.3706 1.76758 25.5008 1.76758 20.4231C1.76758 15.3453 3.79791 10.4755 7.41194 6.885C11.026 3.29448 15.9276 1.27734 21.0386 1.27734C23.5693 1.27734 26.0753 1.77256 28.4133 2.73473C30.7514 3.69689 32.8758 5.10715 34.6653 6.885C36.4548 8.66284 37.8743 10.7735 38.8427 13.0963C39.8112 15.4192 40.3097 17.9088 40.3097 20.4231Z" fill="#F7931A"/>
<path fill-rule="evenodd" clip-rule="evenodd" d="M25.1746 13.1213L17.1319 13.1177L21.1563 6.19957L25.1746 13.1213Z" fill="white"/>
<path fill-rule="evenodd" clip-rule="evenodd" d="M16.7332 13.1183L8.69046 13.1148L12.7149 6.19664L16.7332 13.1183Z" fill="white"/>
<path fill-rule="evenodd" clip-rule="evenodd" d="M33.8147 13.1237L25.772 13.1201L29.7965 6.20201L33.8147 13.1237Z" fill="white"/>
<path fill-rule="evenodd" clip-rule="evenodd" d="M21.4239 6.19621L29.4666 6.20958L25.4336 13.1228L21.4239 6.19621Z" fill="white"/>
<path fill-rule="evenodd" clip-rule="evenodd" d="M12.9141 6.19621L20.9568 6.20958L16.9238 13.1228L12.9141 6.19621Z" fill="white"/>
<path fill-rule="evenodd" clip-rule="evenodd" d="M17.1313 13.5134L25.1741 13.5604L21.1411 37.886L17.1313 13.5134Z" fill="white"/>
<path fill-rule="evenodd" clip-rule="evenodd" d="M25.7722 13.5173L33.7989 13.5643L21.4969 37.8899L25.7722 13.5173Z" fill="white"/>
<path fill-rule="evenodd" clip-rule="evenodd" d="M16.534 13.5134L8.50729 13.5604L20.8093 37.886L16.534 13.5134Z" fill="white"/>
</svg>
