<svg width="20" height="20" viewBox="0 0 20 20" fill="none" xmlns="http://www.w3.org/2000/svg">
<g clip-path="url(#clip0)">
<path d="M18.9441 8.7757C18.3333 6.83243 17.9408 5.93265 17.7611 5.56917L17.761 5.56906C17.6166 5.2715 17.2505 4.63122 17.2359 4.60578C17.1846 4.54318 15.9133 3.02179 12.8492 1.89648L12.4443 2.99885C13.8931 3.53093 14.8848 4.14537 15.4991 4.60734C13.8023 4.10137 11.7847 3.79172 9.99779 3.79172C8.20871 3.79172 6.18871 4.10227 4.49069 4.60934C5.05941 4.18738 6.09359 3.53422 7.55129 2.99885L7.14639 1.89648C4.08232 3.02179 2.81096 4.54318 2.75967 4.60578C2.75967 4.60578 2.45766 5.09331 2.20391 5.62864C2.05183 5.94948 1.65786 6.68207 1.04768 8.78839C0.282403 11.4308 0.0106087 15.1657 0 15.3151C0.135095 15.6106 1.70096 18.1028 5.91461 18.1028L7.06924 16.4309C8.02226 16.6781 9.00542 16.8032 9.99787 16.8032C10.9924 16.8032 11.9775 16.6775 12.9324 16.4294L14.0799 18.1028C18.3773 18.1028 19.7801 15.6955 20 15.3084C19.983 15.1305 19.5574 10.7274 18.9441 8.7757ZM17.8194 15.8938C16.9255 16.5264 15.8754 16.8716 14.6942 16.922L14.1018 16.0581C14.9188 15.7502 15.7027 15.3496 16.4393 14.8593L15.7886 13.8817C14.9669 14.4286 14.0799 14.8518 13.1514 15.1448V15.1459C13.1514 15.1459 11.6138 15.6288 9.99791 15.6288C8.38198 15.6288 6.84876 15.1473 6.84876 15.1473V15.1461C5.91868 14.853 5.03013 14.4294 4.20723 13.8817L3.55646 14.8592C4.29437 15.3504 5.07973 15.7516 5.89832 16.0597L5.30279 16.922C4.12107 16.8719 3.0705 16.5266 2.17635 15.8937C1.67786 15.5409 1.3567 15.1832 1.20235 14.9906C1.27046 14.1863 1.54918 11.2785 2.17588 9.1151C2.64623 7.4915 2.97091 6.73171 3.14816 6.36487C3.14816 6.36487 7.69343 4.96608 9.99791 4.96608C12.3005 4.96608 15.1099 5.53813 16.8323 6.35758C17.0185 6.78185 17.35 7.62041 17.8237 9.12779C18.3235 10.718 18.6963 14.0974 18.7893 14.9957C18.6327 15.1903 18.3129 15.5444 17.8194 15.8938Z" fill="#1FC7D3"/>
<path d="M6.1084 9.90381H7.2828V11.8611H6.1084V9.90381Z" fill="#1FC7D3"/>
<path d="M12.7129 9.90381H13.8873V11.8611H12.7129V9.90381Z" fill="#1FC7D3"/>
</g>
<defs>
<clipPath id="clip0">
<rect width="20" height="20" fill="white"/>
</clipPath>
</defs>
</svg>
