<svg width="20" height="20" viewBox="0 0 20 20" fill="none" xmlns="http://www.w3.org/2000/svg">
<path d="M0.153149 8.71882C-0.496018 12.8072 1.32065 17.738 6.92232 19.5572C7.02232 19.5755 7.11482 19.5838 7.20148 19.5838C7.85315 19.5838 8.30148 19.0988 8.30148 18.5005C8.22065 18.0647 8.62065 16.2988 7.53482 16.5363C5.43565 16.983 5.18398 15.8105 4.86398 15.1972C5.76898 16.3588 7.12898 16.3297 8.15482 15.8797C8.72398 15.6297 8.42648 14.993 8.69648 14.7605C9.10982 14.4055 8.89982 13.7247 8.35732 13.6655C6.42898 13.453 4.64315 12.8313 4.64315 9.74715C4.64315 7.94049 5.89732 7.77882 5.55148 7.02299C5.53898 6.99549 5.27398 6.39465 5.51398 5.48215C6.69648 5.70049 7.24065 6.54882 7.80815 6.39632C9.21398 6.01299 10.7615 6.01299 12.1665 6.39632C12.7531 6.55382 13.1723 5.72882 14.4481 5.47715C14.8156 6.85549 14.054 7.19215 14.534 7.70799C15.0606 8.27465 15.3281 8.96049 15.3281 9.74715C15.3281 14.3838 11.3973 13.0447 11.0773 14.0972C11.004 14.3372 11.0815 14.5963 11.2731 14.7572C11.7815 15.1847 11.7148 16.2822 11.6606 17.1647C11.6048 18.0797 11.5565 18.8688 12.0623 19.3138C12.2406 19.4722 12.5581 19.6413 13.1323 19.5247C18.6607 17.7488 20.4907 12.8397 19.8515 8.76049C18.1048 -2.37951 1.91315 -2.36618 0.153149 8.71882ZM7.04482 17.8672L7.04815 18.288C6.61232 18.1372 6.20232 17.963 5.81898 17.7688C6.17315 17.8597 6.57982 17.8988 7.04482 17.8672ZM7.35315 14.7838C7.34898 14.8055 7.34482 14.828 7.34065 14.8505C6.62982 15.0605 6.08315 14.8513 5.70982 14.2238C5.70982 14.223 5.70982 14.223 5.70898 14.2222C6.27565 14.5255 6.85982 14.6888 7.35315 14.7838ZM9.99982 1.66715C19.8606 1.66715 22.0848 15.223 12.8906 18.2847C12.859 18.0372 12.8881 17.5705 12.9081 17.2413C12.9565 16.4488 13.0132 15.5255 12.7306 14.7538C16.9706 13.8713 17.3248 9.21549 15.6923 7.14132C15.8948 6.34799 15.8131 4.48382 15.0848 4.25549C14.9131 4.20132 13.9973 4.00215 12.2206 5.11965C10.7698 4.77299 9.20398 4.77215 7.75315 5.11965C6.86648 4.56382 4.86815 3.65965 4.48482 4.61965C4.03982 5.73799 4.14565 6.64215 4.27815 7.14465C2.82898 8.98132 3.26315 12.0563 4.72315 13.4997C3.89565 13.1038 2.75565 12.9688 2.50982 13.7613C2.24065 14.6255 3.26982 14.5205 3.90898 16.098C3.96982 16.2947 4.08232 16.5255 4.25482 16.7547C-1.42102 12.1172 1.31732 1.66715 9.99982 1.66715Z" fill="#1FC7D3"/>
</svg>
