<svg width="20" height="22" viewBox="0 0 20 22" fill="none" xmlns="http://www.w3.org/2000/svg"><g clip-path="url(#clip0)"><path d="M19.871 13.1071L11.042 3.16165C10.768 2.85283 10.398 2.68262 10 2.68262C9.603 2.68262 9.233 2.85283 8.958 3.16165L0.129001 13.1071C-0.0559986 13.316 -0.0399986 13.6381 0.164001 13.8267C0.260001 13.9153 0.380001 13.9581 0.499001 13.9581C0.635001 13.9581 0.771001 13.9021 0.870001 13.79L2.999 11.3918V19.5638C2.999 20.4067 3.672 21.0926 4.499 21.0926H15.499C16.326 21.0926 16.999 20.4067 16.999 19.5638V11.3918L19.128 13.79C19.313 13.9989 19.629 14.0152 19.834 13.8256C20.039 13.6361 20.055 13.315 19.869 13.1061L19.871 13.1071ZM12 20.0734H8V15.4869C8 15.2056 8.224 14.9773 8.5 14.9773H11.5C11.776 14.9773 12 15.2056 12 15.4869V20.0734ZM16 19.5638C16 19.8451 15.776 20.0734 15.5 20.0734H13V15.4869C13 14.6441 12.327 13.9581 11.5 13.9581H8.5C7.673 13.9581 7 14.6441 7 15.4869V20.0734H4.5C4.224 20.0734 4 19.8451 4 19.5638V10.2655L9.7 3.84452C9.782 3.75177 9.889 3.70081 10 3.70081C10.111 3.70081 10.218 3.75177 10.3 3.84452L16 10.2655V19.5638Z" fill="#1FC7D3"/></g><defs><clipPath id="clip0"><rect width="20" height="20.3842" fill="white" transform="translate(0 0.708008)"/></clipPath></defs></svg>
