<svg width="20" height="20" viewBox="0 0 20 20" fill="none" xmlns="http://www.w3.org/2000/svg">
<g clip-path="url(#clip0)">
<path d="M19.6478 17.9714H17.1831C16.9886 17.9714 16.8309 17.8141 16.8309 17.6194C16.8309 15.8718 15.4092 14.4503 13.6619 14.4503C11.9144 14.4503 10.4927 15.8718 10.4927 17.6194C10.4927 17.8141 10.335 17.9714 10.1405 17.9714H5.91518C5.72075 17.9714 5.56299 17.8141 5.56299 17.6194C5.56299 17.4248 5.72075 17.2673 5.91518 17.2673H9.80426C9.98277 15.2957 11.6446 13.7461 13.6619 13.7461C15.679 13.7461 17.3408 15.2957 17.5193 17.2673H19.6478C19.8423 17.2673 20 17.4248 20 17.6194C20 17.8141 19.8423 17.9714 19.6478 17.9714Z" fill="#1FC7D3"/>
<path d="M12.6465 15.9773C12.6465 15.9481 12.6658 15.9287 12.6948 15.9287H13.9197C14.6168 15.9287 14.946 16.2771 14.946 16.8048C14.946 17.1775 14.7718 17.3905 14.5636 17.5019V17.5116C14.7669 17.5892 15.0041 17.8505 15.0041 18.2522C15.0041 18.9059 14.5926 19.2206 13.8711 19.2206H12.6948C12.6658 19.2206 12.6465 19.2012 12.6465 19.172V15.9773ZM13.9052 17.2986C14.1957 17.2986 14.3746 17.1243 14.3746 16.8678C14.3746 16.6065 14.1957 16.4322 13.9052 16.4322H13.2467C13.2274 16.4322 13.2177 16.4417 13.2177 16.461V17.2698C13.2177 17.2891 13.2274 17.2986 13.2467 17.2986H13.9052ZM13.2467 18.7171H13.9342C14.2539 18.7171 14.4329 18.5331 14.4329 18.2571C14.4329 17.9861 14.2539 17.8021 13.9342 17.8021H13.2467C13.2274 17.8021 13.2177 17.8116 13.2177 17.8313V18.6879C13.2177 18.7076 13.2274 18.7171 13.2467 18.7171Z" fill="#1FC7D3"/>
<path d="M13.8378 16.211C13.7406 16.211 13.6619 16.1322 13.6619 16.0349V15.6829C13.6619 15.5856 13.7406 15.5068 13.8378 15.5068C13.9351 15.5068 14.0139 15.5856 14.0139 15.6829V16.0349C14.0139 16.1322 13.9351 16.211 13.8378 16.211Z" fill="#1FC7D3"/>
<path d="M13.8378 19.7325C13.7406 19.7325 13.6619 19.6537 13.6619 19.5566V19.2044C13.6619 19.1071 13.7406 19.0283 13.8378 19.0283C13.9351 19.0283 14.0139 19.1071 14.0139 19.2044V19.5566C14.0139 19.6539 13.9351 19.7325 13.8378 19.7325Z" fill="#1FC7D3"/>
<path d="M14.7373 4.86338C14.6473 4.86338 14.557 4.82893 14.4883 4.76022C14.3509 4.62261 14.3509 4.39977 14.4883 4.26235L14.8536 3.89686L14.3557 3.39899L13.954 3.80055C13.8165 3.93796 13.5935 3.93796 13.4561 3.80055C13.3187 3.66294 13.3187 3.4401 13.4561 3.30268L14.1069 2.65189C14.2445 2.51447 14.4673 2.51447 14.6047 2.65189L15.6007 3.64783C15.7381 3.78524 15.7381 4.00808 15.6007 4.1457L14.9862 4.76002C14.9175 4.82893 14.8274 4.86338 14.7373 4.86338Z" fill="#1FC7D3"/>
<path d="M1.34701 18.2533C1.25695 18.2533 1.16668 18.2189 1.09797 18.1501L0.102234 17.1542C-0.0353801 17.0168 -0.0353801 16.7939 0.102234 16.6563L9.87305 6.88529C10.0105 6.74787 10.2335 6.74787 10.3709 6.88529L11.3669 7.88103C11.433 7.94712 11.47 8.03658 11.47 8.13006C11.47 8.22355 11.433 8.31301 11.3669 8.3791L1.59584 18.1501C1.52714 18.2189 1.43707 18.2533 1.34701 18.2533ZM0.849139 16.9052L1.34701 17.403L10.62 8.13006L10.1219 7.63199L0.849139 16.9052Z" fill="#1FC7D3"/>
<path d="M17.5262 13.6652C17.3872 13.6652 17.2589 13.5827 17.2028 13.452C16.3689 11.5085 15.1082 9.52463 13.5455 7.69474L12.1147 9.12549C11.9828 9.25746 11.7488 9.25746 11.6169 9.12549L9.12711 6.63553C8.98949 6.49812 8.98949 6.27508 9.12711 6.13766L10.5577 4.70692C8.72696 3.14359 6.74313 1.8829 4.80041 1.04975C4.65453 0.987294 4.5685 0.835173 4.59026 0.678014C4.61202 0.520856 4.73593 0.397748 4.89329 0.377196C8.18214 -0.0561985 11.7204 1.26131 14.3557 3.89654C16.9909 6.53197 18.3066 10.0694 17.8754 13.3587C17.8548 13.5159 17.7315 13.64 17.5746 13.6617C17.5583 13.6641 17.5421 13.6652 17.5262 13.6652ZM13.5642 6.82614C13.5678 6.82614 13.5717 6.82614 13.5755 6.82634C13.6728 6.82956 13.7645 6.87248 13.8286 6.94562C15.2087 8.5162 16.3745 10.2091 17.2498 11.9046C17.1901 9.23973 15.9758 6.51303 13.8578 4.39461C11.7396 2.2766 9.01246 1.06245 6.34782 1.00261C8.04291 1.87746 9.73559 3.04365 11.3068 4.42383C11.3797 4.4881 11.423 4.57958 11.4261 4.67689C11.4293 4.77421 11.3918 4.86851 11.3231 4.93721L9.87381 6.3867L11.8657 8.37858L13.3152 6.9293C13.3815 6.86321 13.4709 6.82614 13.5642 6.82614Z" fill="#1FC7D3"/>
<path d="M11.1968 19.3802H2.39374C2.19931 19.3802 2.04175 19.2226 2.04175 19.028C2.04175 18.8333 2.19931 18.6758 2.39374 18.6758H11.1968C11.3913 18.6758 11.549 18.8333 11.549 19.028C11.549 19.2226 11.3913 19.3802 11.1968 19.3802Z" fill="#1FC7D3"/>
</g>
<defs>
<clipPath id="clip0">
<rect width="20" height="20" fill="white"/>
</clipPath>
</defs>
</svg>
