<svg width="20" height="20" viewBox="0 0 20 20" fill="none" xmlns="http://www.w3.org/2000/svg">
<g clip-path="url(#clip0)">
<path d="M7.02238 12.6537C7.76662 12.6537 8.36995 12.0504 8.36995 11.3061C8.36995 10.5618 7.76662 9.9585 7.02238 9.9585C6.27813 9.9585 5.6748 10.5618 5.6748 11.3061C5.6748 12.0504 6.27813 12.6537 7.02238 12.6537Z" fill="#1FC7D3"/>
<path d="M20.0003 10.2157C20.0003 8.55055 18.6895 7.19596 17.0783 7.19596C16.5129 7.19596 15.988 7.3671 15.5412 7.65361C14.1549 6.84859 12.4068 6.34847 10.4976 6.28001L11.598 3.12078L13.8773 3.66655C13.8697 3.74198 13.8551 3.81424 13.8551 3.89157C13.8551 5.14791 14.8775 6.17035 16.1345 6.17035C17.3895 6.17035 18.4138 5.14854 18.4138 3.89157C18.4138 2.6346 17.3901 1.61279 16.1345 1.61279C15.3149 1.61279 14.6024 2.05017 14.2012 2.69989L10.9419 1.92022L9.42068 6.28635C7.52039 6.38396 5.7906 6.91388 4.43035 7.74046C4.4576 7.72144 4.48106 7.69989 4.50831 7.68087C4.05067 7.37534 3.50746 7.19532 2.92304 7.19532C1.31115 7.19532 0.000976562 8.54928 0.000976562 10.2151C0.000976562 11.3288 0.59363 12.2948 1.46645 12.8165C1.82394 15.9301 5.53516 18.3876 10.0545 18.3876C14.6031 18.3876 18.3333 15.8971 18.649 12.755C19.459 12.2207 20.0003 11.2832 20.0003 10.2157ZM16.1332 2.62826C16.8298 2.62826 17.3971 3.19558 17.3971 3.89284C17.3971 4.58947 16.8292 5.15678 16.1332 5.15678C15.4341 5.15678 14.868 4.58947 14.868 3.89284C14.868 3.19494 15.436 2.62826 16.1332 2.62826ZM2.92241 8.21016C3.1525 8.21016 3.36928 8.26023 3.57338 8.33883C2.47047 9.22309 1.7295 10.3324 1.50638 11.557C1.2015 11.2008 1.01324 10.7317 1.01324 10.2157C1.01324 9.11026 1.87021 8.21016 2.92241 8.21016ZM10.0533 17.3747C5.85652 17.3747 2.44322 15.1105 2.44322 12.3272C2.44322 9.54319 5.85652 7.27963 10.0533 7.27963C14.2494 7.27963 17.6621 9.54383 17.6621 12.3272C17.6621 15.1099 14.2494 17.3747 10.0533 17.3747ZM18.5754 11.4467C18.3263 10.255 17.5873 9.17681 16.5015 8.31475C16.6847 8.25263 16.8761 8.21016 17.0783 8.21016C18.1298 8.21016 18.9862 9.10962 18.9862 10.2157C18.9849 10.681 18.829 11.1063 18.5754 11.4467Z" fill="#1FC7D3"/>
<path d="M12.8168 12.6537C13.5611 12.6537 14.1644 12.0504 14.1644 11.3061C14.1644 10.5618 13.5611 9.9585 12.8168 9.9585C12.0726 9.9585 11.4692 10.5618 11.4692 11.3061C11.4692 12.0504 12.0726 12.6537 12.8168 12.6537Z" fill="#1FC7D3"/>
<path d="M12.6006 14.3017C9.74572 16.1862 7.4423 14.4107 7.33961 14.3302C7.12093 14.1546 6.80274 14.1895 6.62779 14.4069C6.45285 14.6262 6.48581 14.9444 6.70386 15.12C6.72287 15.1359 8.03875 16.1703 9.94982 16.1703C10.9 16.1703 11.9984 15.9136 13.1584 15.1485C13.3923 14.9939 13.4569 14.6795 13.3035 14.4468C13.1483 14.2123 12.8339 14.147 12.6006 14.3017Z" fill="#1FC7D3"/>
</g>
<defs>
<clipPath id="clip0">
<rect width="20" height="20" fill="white"/>
</clipPath>
</defs>
</svg>
