<svg width="20" height="20" viewBox="0 0 20 20" fill="none" xmlns="http://www.w3.org/2000/svg">
<g clip-path="url(#clip0)">
<path d="M16.3495 20H3.68282C3.49876 20 3.34961 19.8509 3.34961 19.6666V4.33321C3.34961 4.14896 3.49876 4 3.68282 4H16.3495C16.5336 4 16.6829 4.14896 16.6829 4.33321V19.6666C16.6829 19.8509 16.5336 20 16.3495 20ZM4.01623 19.3332H16.0163V4.66662H4.01623V19.3332Z" fill="#1FC7D3"/>
<path d="M16.3495 4.66671H3.68278C3.5672 4.66671 3.46 4.60682 3.39935 4.50859C3.3387 4.41017 3.33317 4.28753 3.38466 4.18434L4.31011 2.33326L3.38466 0.482368C3.33317 0.379181 3.3387 0.256538 3.39935 0.158119C3.4602 0.0598907 3.5672 0 3.68278 0H16.3495C16.4651 0 16.5725 0.0598907 16.6331 0.158119C16.6938 0.256348 16.6993 0.379181 16.6476 0.482368L15.7224 2.33326L16.6476 4.18434C16.6993 4.28734 16.6938 4.41017 16.6331 4.50859C16.5723 4.60682 16.4651 4.66671 16.3495 4.66671ZM4.22237 4.00009H15.8103L15.0515 2.48241C15.0046 2.38857 15.0046 2.27795 15.0515 2.1843L15.8101 0.666618H4.22237L4.98112 2.1843C5.02785 2.27795 5.02785 2.38857 4.98112 2.48241L4.22237 4.00009Z" fill="#1FC7D3"/>
<path d="M6.34944 7.66685C5.79803 7.66685 5.34961 7.21844 5.34961 6.66702C5.34961 6.1156 5.79803 5.66699 6.34944 5.66699C6.90085 5.66699 7.34946 6.1156 7.34946 6.66702C7.34946 7.21844 6.90085 7.66685 6.34944 7.66685ZM6.34944 6.33361C6.16576 6.33361 6.01623 6.48296 6.01623 6.66702C6.01623 6.85089 6.16576 7.00023 6.34944 7.00023C6.53331 7.00023 6.68284 6.85089 6.68284 6.66702C6.68284 6.48296 6.53331 6.33361 6.34944 6.33361Z" fill="#1FC7D3"/>
<path d="M13.6829 7.66685C13.1315 7.66685 12.6829 7.21844 12.6829 6.66702C12.6829 6.1156 13.1315 5.66699 13.6829 5.66699C14.2343 5.66699 14.6829 6.1156 14.6829 6.66702C14.6829 7.21844 14.2343 7.66685 13.6829 7.66685ZM13.6829 6.33361C13.4992 6.33361 13.3497 6.48296 13.3497 6.66702C13.3497 6.85089 13.4992 7.00023 13.6829 7.00023C13.8668 7.00023 14.0163 6.85089 14.0163 6.66702C14.0163 6.48296 13.8668 6.33361 13.6829 6.33361Z" fill="#1FC7D3"/>
<path d="M10.0163 11.0003C7.81079 11.0003 6.01636 9.20606 6.01636 7.00021C6.01636 6.81596 6.16551 6.66699 6.34957 6.66699C6.53382 6.66699 6.68297 6.81596 6.68297 7.00021C6.68297 8.83813 8.17814 10.3335 10.0163 10.3335C11.8544 10.3335 13.3497 8.83813 13.3497 7.00021C13.3497 6.81596 13.4989 6.66699 13.6829 6.66699C13.867 6.66699 14.0163 6.81596 14.0163 7.00021C14.0163 9.20606 12.2219 11.0003 10.0163 11.0003Z" fill="#1FC7D3"/>
<path d="M10.0163 19.0004C7.99451 19.0004 6.34961 17.3555 6.34961 15.3337C6.34961 13.3119 7.99451 11.667 10.0163 11.667C12.0383 11.667 13.683 13.3119 13.683 15.3337C13.683 17.3555 12.0383 19.0004 10.0163 19.0004ZM10.0163 12.3336C8.36224 12.3336 7.01642 13.6792 7.01642 15.3337C7.01642 16.9879 8.36224 18.3336 10.0163 18.3336C11.6705 18.3336 13.0164 16.9879 13.0164 15.3337C13.0164 13.6792 11.6705 12.3336 10.0163 12.3336Z" fill="#1FC7D3"/>
<path d="M9.05518 13.7784C9.05518 13.7507 9.07349 13.7324 9.10095 13.7324H10.2604C10.9204 13.7324 11.232 14.0622 11.232 14.5619C11.232 14.9148 11.067 15.1162 10.87 15.2217V15.2308C11.0625 15.3045 11.287 15.5518 11.287 15.932C11.287 16.5507 10.8975 16.8486 10.2147 16.8486H9.10095C9.07349 16.8486 9.05518 16.8303 9.05518 16.8027V13.7784ZM10.2467 15.0292C10.5217 15.0292 10.6911 14.8642 10.6911 14.6214C10.6911 14.3739 10.5217 14.2089 10.2467 14.2089H9.62337C9.60506 14.2089 9.59591 14.218 9.59591 14.2363V15.002C9.59591 15.0203 9.60506 15.0292 9.62337 15.0292H10.2467ZM9.62337 16.3722H10.2742C10.5769 16.3722 10.7462 16.1979 10.7462 15.9366C10.7462 15.68 10.5769 15.5059 10.2742 15.5059H9.62337C9.60506 15.5059 9.59591 15.515 9.59591 15.5335V16.3443C9.59591 16.363 9.60506 16.3722 9.62337 16.3722Z" fill="#1FC7D3"/>
<path d="M9.84981 13.9996C9.75769 13.9996 9.68311 13.925 9.68311 13.8331V13.4997C9.68311 13.4076 9.75769 13.333 9.84981 13.333C9.94175 13.333 10.0163 13.4076 10.0163 13.4997V13.8331C10.0163 13.925 9.94175 13.9996 9.84981 13.9996Z" fill="#1FC7D3"/>
<path d="M9.84981 17.3338C9.75769 17.3338 9.68311 17.2592 9.68311 17.1671V16.8337C9.68311 16.7416 9.75769 16.667 9.84981 16.667C9.94175 16.667 10.0163 16.7416 10.0163 16.8337V17.1671C10.0163 17.2592 9.94175 17.3338 9.84981 17.3338Z" fill="#1FC7D3"/>
</g>
<defs>
<clipPath id="clip0">
<rect width="20" height="20" fill="white"/>
</clipPath>
</defs>
</svg>
