<svg width="20" height="20" viewBox="0 0 20 20" fill="none" xmlns="http://www.w3.org/2000/svg">
<path d="M9.84107 11.4175C7.04036 11.4175 4.76172 9.13885 4.76172 6.33814C4.76172 3.53743 7.04036 1.25879 9.84107 1.25879C12.6418 1.25879 14.9204 3.53743 14.9204 6.33814C14.9204 9.13885 12.6418 11.4175 9.84107 11.4175ZM9.84107 1.89366C7.3904 1.89366 5.39677 3.88747 5.39677 6.33814C5.39677 8.78899 7.3904 10.7826 9.84107 10.7826C12.2919 10.7826 14.2856 8.78899 14.2856 6.33814C14.2856 3.88747 12.2919 1.89366 9.84107 1.89366Z" fill="#24B4C6"/>
<path d="M9.84131 10.4658C7.56576 10.4658 5.71436 8.61443 5.71436 6.33887C5.71436 4.06331 7.56576 2.21191 9.84131 2.21191C12.1169 2.21191 13.9685 4.06331 13.9685 6.33887C13.9685 8.61443 12.1169 10.4658 9.84131 10.4658ZM9.84131 2.84679C7.9158 2.84679 6.34941 4.41336 6.34941 6.33887C6.34941 8.26439 7.9158 9.83095 9.84131 9.83095C11.767 9.83095 13.3334 8.26439 13.3334 6.33887C13.3334 4.41336 11.767 2.84679 9.84131 2.84679Z" fill="#24B4C6"/>
<path d="M8.81421 4.58372C8.81421 4.5503 8.83655 4.52832 8.86979 4.52832H10.2742C11.0736 4.52832 11.4509 4.92796 11.4509 5.53304C11.4509 5.96065 11.2513 6.20461 11.0126 6.33231V6.34357C11.2458 6.4324 11.5176 6.73231 11.5176 7.19298C11.5176 7.9423 11.0458 8.30306 10.2186 8.30306H8.86979C8.83655 8.30306 8.81421 8.28072 8.81421 8.24766V4.58372ZM10.2576 6.09907C10.5906 6.09907 10.7962 5.89943 10.7962 5.60516C10.7962 5.30543 10.5906 5.10543 10.2576 5.10543H9.50249C9.48051 5.10543 9.46925 5.11669 9.46925 5.13867V6.06601C9.46925 6.08799 9.48051 6.09907 9.50249 6.09907H10.2576ZM9.50249 7.72577H10.2909C10.6573 7.72577 10.8625 7.51469 10.8625 7.19843C10.8625 6.88744 10.6573 6.67636 10.2909 6.67636H9.50249C9.48051 6.67636 9.46925 6.68762 9.46925 6.70979V7.69235C9.46925 7.71469 9.48051 7.72577 9.50249 7.72577Z" fill="#24B4C6"/>
<path d="M9.84127 5.06876C9.66579 5.06876 9.52393 4.92671 9.52393 4.75123V4.11636C9.52393 3.94088 9.66579 3.79883 9.84127 3.79883C10.0167 3.79883 10.1588 3.94088 10.1588 4.11636V4.75123C10.1588 4.92671 10.0167 5.06876 9.84127 5.06876Z" fill="#24B4C6"/>
<path d="M9.84127 8.87818C9.66579 8.87818 9.52393 8.73631 9.52393 8.56084V8.24331C9.52393 8.06783 9.66579 7.92578 9.84127 7.92578C10.0167 7.92578 10.1588 8.06783 10.1588 8.24331V8.56084C10.1588 8.73631 10.0167 8.87818 9.84127 8.87818Z" fill="#24B4C6"/>
<path d="M6.34943 18.7194H0.952538C0.777062 18.7194 0.63501 18.5773 0.63501 18.4018V17.6928C0.63501 17.0391 1.23682 16.5057 1.98178 16.4934L3.60048 16.2316C3.63391 16.2262 3.66806 16.2262 3.70148 16.2316L5.32018 16.4934C6.06514 16.5057 6.66695 17.0391 6.66695 17.6928V18.4018C6.66677 18.5773 6.5249 18.7194 6.34943 18.7194ZM1.27007 18.0843H6.0319V17.6928C6.0319 17.3811 5.70038 17.1279 5.29312 17.1279C5.27604 17.1279 5.25933 17.1266 5.24244 17.1239L3.65098 16.8667L2.05935 17.1239C2.04245 17.1266 2.02574 17.1279 2.00866 17.1279C1.6014 17.1279 1.26988 17.3811 1.26988 17.6928V18.0843H1.27007Z" fill="#24B4C6"/>
<path d="M4.51733 16.4969H2.77928C2.29445 16.4969 1.8999 16.1024 1.8999 15.6176V14.2288C1.8999 13.3789 2.59127 12.6875 3.44122 12.6875H3.85539C4.70552 12.6875 5.39689 13.3789 5.39689 14.2288V15.6176C5.39689 16.1024 5.00216 16.4969 4.51733 16.4969ZM3.44122 13.3224C2.9415 13.3224 2.5346 13.7291 2.5346 14.2288V15.6176C2.5346 15.7523 2.64449 15.8621 2.77928 15.8621H4.51715C4.65212 15.8621 4.76183 15.7523 4.76183 15.6176V14.2288C4.76183 13.7291 4.35511 13.3224 3.85539 13.3224H3.44122Z" fill="#24B4C6"/>
<path d="M12.6984 18.7194H7.30148C7.126 18.7194 6.98413 18.5773 6.98413 18.4018V17.6928C6.98413 17.0391 7.58576 16.5057 8.3309 16.4934L9.94941 16.2316C9.98302 16.2262 10.0172 16.2262 10.0506 16.2316L11.6691 16.4934C12.4142 16.5057 13.0159 17.0391 13.0159 17.6928V18.4018C13.0159 18.5773 12.8738 18.7194 12.6984 18.7194ZM7.619 18.0843H12.3808V17.6928C12.3808 17.3811 12.0495 17.1279 11.642 17.1279C11.625 17.1279 11.6083 17.1266 11.5915 17.1239L9.99991 16.8667L8.40828 17.1239C8.39157 17.1266 8.37486 17.1279 8.35778 17.1279C7.95034 17.1279 7.619 17.3811 7.619 17.6928V18.0843Z" fill="#24B4C6"/>
<path d="M10.8664 16.4969H9.12858C8.64375 16.4969 8.24902 16.1024 8.24902 15.6176V14.2288C8.24902 13.3789 8.94039 12.6875 9.79052 12.6875H10.2047C11.0548 12.6875 11.7462 13.3789 11.7462 14.2288V15.6176C11.746 16.1024 11.3513 16.4969 10.8664 16.4969ZM9.79034 13.3224C9.29061 13.3224 8.8839 13.7291 8.8839 14.2288V15.6176C8.8839 15.7523 8.99361 15.8621 9.12858 15.8621H10.8664C11.0012 15.8621 11.1109 15.7523 11.1109 15.6176V14.2288C11.1109 13.7291 10.7042 13.3224 10.2045 13.3224H9.79034Z" fill="#24B4C6"/>
<path d="M19.0477 18.7194H13.6508C13.4753 18.7194 13.3333 18.5773 13.3333 18.4018V17.6928C13.3333 17.0391 13.9351 16.5057 14.68 16.4934L16.2987 16.2316C16.3322 16.2262 16.3663 16.2262 16.3997 16.2316L18.0184 16.4934C18.7634 16.5057 19.3652 17.0391 19.3652 17.6928V18.4018C19.365 18.5773 19.2232 18.7194 19.0477 18.7194ZM13.9683 18.0843H18.7302V17.6928C18.7302 17.3811 18.3986 17.1279 17.9914 17.1279C17.9743 17.1279 17.9576 17.1266 17.9407 17.1239L16.3492 16.8667L14.7576 17.1239C14.7407 17.1266 14.724 17.1279 14.7069 17.1279C14.2996 17.1279 13.9681 17.3811 13.9681 17.6928V18.0843H13.9683Z" fill="#24B4C6"/>
<path d="M17.2158 16.4969H15.4779C14.9929 16.4969 14.5984 16.1024 14.5984 15.6176V14.2288C14.5984 13.3789 15.2898 12.6875 16.1397 12.6875H16.554C17.404 12.6875 18.0954 13.3789 18.0954 14.2288V15.6176C18.0954 16.1024 17.7006 16.4969 17.2158 16.4969ZM16.1397 13.3224C15.64 13.3224 15.2333 13.7291 15.2333 14.2288V15.6176C15.2333 15.7523 15.343 15.8621 15.4778 15.8621H17.2156C17.3506 15.8621 17.4603 15.7523 17.4603 15.6176V14.2288C17.4603 13.7291 17.0536 13.3224 16.5539 13.3224H16.1397Z" fill="#24B4C6"/>
<path d="M1.21471 14.5929H0V10.4658H1.90481V6.02148H5.07937V6.65636H2.53968V11.1009H0.634876V13.9579H1.21471V14.5929Z" fill="#24B4C6"/>
<path d="M20 14.5929H18.8483V13.9579H19.3651V11.1009H17.4603V6.65636H14.9207V6.02148H18.0954V10.4658H20V14.5929Z" fill="#24B4C6"/>
</svg>
