<svg width="20" height="20" viewBox="0 0 20 20" fill="none" xmlns="http://www.w3.org/2000/svg">
<g clip-path="url(#clip0)">
<path d="M16.6016 3.04004H3.39844C2.49743 3.04107 1.63363 3.39945 0.996521 4.03656C0.359415 4.67367 0.00103386 5.53747 0 6.43848L0 15.9047C0.000330813 16.1843 0.111556 16.4524 0.309276 16.6501C0.506997 16.8479 0.775069 16.9591 1.05469 16.9594H18.9453C19.2249 16.9591 19.493 16.8479 19.6907 16.6501C19.8884 16.4524 19.9997 16.1843 20 15.9047V6.43848C19.999 5.53747 19.6406 4.67367 19.0035 4.03656C18.3664 3.39945 17.5026 3.04107 16.6016 3.04004ZM16.6016 3.58691C17.3576 3.58778 18.0824 3.88849 18.617 4.42308C19.1515 4.95766 19.4523 5.68246 19.4531 6.43848V8.16254H17.7473V6.61957C17.7473 6.08191 17.7614 5.54426 17.5656 5.03223C17.3542 4.44843 16.9682 3.94383 16.4602 3.58691H16.6016ZM8.4375 11.8747H11.5625C11.9664 11.8743 12.3536 11.7136 12.6392 11.428C12.9248 11.1424 13.0855 10.7552 13.0859 10.3513V10.2719H16.5727C16.6298 10.6006 16.787 10.9037 17.0229 11.1396C17.2589 11.3755 17.5619 11.5328 17.8906 11.5899V13.5319C17.5619 13.5891 17.2589 13.7464 17.0229 13.9823C16.787 14.2183 16.6298 14.5213 16.5727 14.85H3.42734C3.37023 14.5213 3.21296 14.2183 2.97705 13.9823C2.74114 13.7464 2.4381 13.5891 2.10938 13.5319V11.5899C2.43809 11.5328 2.74114 11.3755 2.97706 11.1396C3.21298 10.9037 3.37025 10.6006 3.42734 10.2719H6.91406V10.3513C6.91452 10.7552 7.07517 11.1424 7.36077 11.428C7.64637 11.7136 8.0336 11.8743 8.4375 11.8747ZM12.5391 10.3513C12.5388 10.6102 12.4358 10.8584 12.2527 11.0415C12.0696 11.2246 11.8214 11.3276 11.5625 11.3279H8.4375C8.17859 11.3276 7.93036 11.2246 7.74729 11.0415C7.56421 10.8584 7.46123 10.6102 7.46094 10.3513V8.70941H12.5391V10.3513ZM2.79953 8.16254V6.89301H17.2005V8.16254H2.79953ZM17.1172 5.42816C17.1852 5.72921 17.2132 6.03792 17.2005 6.34629H2.79953C2.78663 6.02941 2.8168 5.71224 2.88922 5.40348H17.1108C17.1131 5.4116 17.115 5.41988 17.1172 5.42801V5.42816ZM14.7344 3.58691C15.174 3.58732 15.6056 3.70522 15.9844 3.92843C16.3631 4.15164 16.6754 4.47203 16.8888 4.85645H3.11094C3.32433 4.47199 3.63661 4.15156 4.01545 3.92835C4.3943 3.70514 4.82592 3.58726 5.26562 3.58691H14.7344ZM0.546875 6.43848C0.547743 5.68246 0.848454 4.95766 1.38304 4.42308C1.91762 3.88849 2.64242 3.58778 3.39844 3.58691H3.53984C3.03173 3.94378 2.64576 4.4484 2.43438 5.03223C2.23859 5.54441 2.25266 6.08191 2.25266 6.61957V8.16254H0.546875V6.43848ZM19.4531 15.9047C19.453 16.0394 19.3994 16.1684 19.3042 16.2636C19.209 16.3588 19.0799 16.4124 18.9453 16.4125H1.05469C0.920058 16.4124 0.79099 16.3588 0.695792 16.2636C0.600595 16.1684 0.54704 16.0394 0.546875 15.9047V8.70941H6.91406V9.72504H3.17703C3.10451 9.72504 3.03496 9.75385 2.98368 9.80513C2.9324 9.85641 2.90359 9.92596 2.90359 9.99848C2.9033 10.2816 2.79073 10.553 2.59057 10.7532C2.39042 10.9533 2.11902 11.066 1.83594 11.0663C1.80002 11.0663 1.76446 11.0733 1.73127 11.0871C1.69809 11.1008 1.66794 11.1209 1.64254 11.1463C1.61715 11.1717 1.59701 11.2019 1.58327 11.2351C1.56954 11.2682 1.56248 11.3038 1.5625 11.3397V13.7822C1.5625 13.8547 1.59131 13.9243 1.64259 13.9756C1.69387 14.0269 1.76342 14.0557 1.83594 14.0557C2.11902 14.056 2.39042 14.1686 2.59057 14.3688C2.79073 14.569 2.9033 14.8404 2.90359 15.1235C2.90359 15.196 2.9324 15.2655 2.98368 15.3168C3.03496 15.3681 3.10451 15.3969 3.17703 15.3969H16.823C16.8955 15.3969 16.965 15.3681 17.0163 15.3168C17.0676 15.2655 17.0964 15.196 17.0964 15.1235C17.0967 14.8404 17.2093 14.569 17.4094 14.3688C17.6096 14.1686 17.881 14.056 18.1641 14.0557C18.2366 14.0557 18.3061 14.0269 18.3574 13.9756C18.4087 13.9243 18.4375 13.8547 18.4375 13.7822V11.3397C18.4375 11.3038 18.4305 11.2682 18.4167 11.2351C18.403 11.2019 18.3829 11.1717 18.3575 11.1463C18.3321 11.1209 18.3019 11.1008 18.2687 11.0871C18.2355 11.0733 18.2 11.0663 18.1641 11.0663C17.881 11.066 17.6096 10.9533 17.4094 10.7532C17.2093 10.553 17.0967 10.2816 17.0964 9.99848C17.0964 9.92596 17.0676 9.85641 17.0163 9.80513C16.965 9.75385 16.8955 9.72504 16.823 9.72504H13.0859V8.70941H19.4531V15.9047Z" fill="#1FC7D3"/>
<path d="M9.72643 10.1714V10.5322C9.72643 10.6047 9.75523 10.6743 9.80651 10.7255C9.85779 10.7768 9.92734 10.8056 9.99986 10.8056C10.0724 10.8056 10.1419 10.7768 10.1932 10.7255C10.2445 10.6743 10.2733 10.6047 10.2733 10.5322V10.1714C10.3668 10.1122 10.4386 10.0242 10.4778 9.92062C10.517 9.81707 10.5216 9.7036 10.4907 9.59726C10.4599 9.49092 10.3954 9.39747 10.3068 9.33097C10.2183 9.26447 10.1106 9.22852 9.99986 9.22852C9.88914 9.22852 9.78142 9.26447 9.69289 9.33097C9.60437 9.39747 9.53983 9.49092 9.50899 9.59726C9.47816 9.7036 9.48268 9.81707 9.5219 9.92062C9.56111 10.0242 9.63288 10.1122 9.72643 10.1714Z" fill="#1FC7D3"/>
</g>
<defs>
<clipPath id="clip0">
<rect width="20" height="20" fill="white"/>
</clipPath>
</defs>
</svg>
