<svg width="24" height="24" viewBox="0 0 24 24" fill="none" xmlns="http://www.w3.org/2000/svg">
<g clip-path="url(#clip0)">
<path d="M11.8325 11.5708C13.3869 11.5708 14.7328 11.0133 15.8328 9.91327C16.9324 8.81346 17.4901 7.46778 17.4901 5.91314C17.4901 4.35904 16.9326 3.01317 15.8326 1.91301C14.7326 0.813379 13.3867 0.255859 11.8325 0.255859C10.2778 0.255859 8.93212 0.813379 7.83231 1.91319C6.73251 3.01299 6.1748 4.35886 6.1748 5.91314C6.1748 7.46778 6.73251 8.81364 7.83231 9.91345C8.93248 11.0131 10.2783 11.5708 11.8325 11.5708ZM8.80578 2.88647C9.64968 2.04258 10.6396 1.63237 11.8325 1.63237C13.0251 1.63237 14.0152 2.04258 14.8593 2.88647C15.7032 3.73055 16.1136 4.72068 16.1136 5.91314C16.1136 7.10596 15.7032 8.09591 14.8593 8.93998C14.0152 9.78406 13.0251 10.1943 11.8325 10.1943C10.64 10.1943 9.65004 9.78388 8.80578 8.93998C7.9617 8.09609 7.55131 7.10596 7.55131 5.91314C7.55131 4.72068 7.9617 3.73055 8.80578 2.88647Z" fill="#211E34"/>
<path d="M21.7319 18.3184C21.7002 17.8607 21.6361 17.3614 21.5416 16.8342C21.4463 16.303 21.3235 15.8009 21.1766 15.3419C21.0246 14.8676 20.8183 14.3991 20.5629 13.9502C20.2983 13.4842 19.9871 13.0785 19.638 12.7446C19.273 12.3954 18.826 12.1145 18.3092 11.9097C17.7942 11.7059 17.2234 11.6027 16.6128 11.6027C16.373 11.6027 16.1411 11.7011 15.6933 11.9927C15.4177 12.1724 15.0953 12.3803 14.7354 12.6102C14.4277 12.8063 14.0109 12.99 13.496 13.1563C12.9937 13.3188 12.4836 13.4013 11.9801 13.4013C11.4768 13.4013 10.9668 13.3188 10.4641 13.1563C9.94979 12.9902 9.53277 12.8065 9.22561 12.6104C8.86916 12.3826 8.54658 12.1748 8.26683 11.9925C7.81935 11.7009 7.58745 11.6025 7.34767 11.6025C6.73692 11.6025 6.16632 11.7059 5.65145 11.9099C5.13497 12.1144 4.68784 12.3952 4.32243 12.7448C3.97333 13.0789 3.66222 13.4844 3.39771 13.9502C3.14269 14.3991 2.93624 14.8674 2.78427 15.3421C2.6375 15.8011 2.51474 16.303 2.4194 16.8342C2.32478 17.3607 2.2608 17.8602 2.22908 18.3189C2.1979 18.7675 2.18213 19.2343 2.18213 19.706C2.18213 20.9322 2.57191 21.9248 3.34054 22.6569C4.09967 23.3793 5.10396 23.7456 6.32563 23.7456H17.6359C18.8572 23.7456 19.8615 23.3793 20.6208 22.6569C21.3896 21.9254 21.7794 20.9324 21.7794 19.7058C21.7792 19.2326 21.7633 18.7657 21.7319 18.3184ZM19.6717 21.6596C19.1701 22.137 18.5042 22.3691 17.6357 22.3691H6.32563C5.45701 22.3691 4.79106 22.137 4.28963 21.6598C3.7977 21.1915 3.55864 20.5523 3.55864 19.706C3.55864 19.2659 3.57315 18.8313 3.60219 18.4141C3.6305 18.0048 3.68839 17.5552 3.77423 17.0774C3.85899 16.6055 3.96688 16.1627 4.09519 15.7618C4.21831 15.3774 4.38623 14.9968 4.59447 14.6301C4.79321 14.2806 5.02188 13.9808 5.27421 13.7393C5.51023 13.5133 5.80772 13.3283 6.15825 13.1896C6.48244 13.0613 6.84678 12.9911 7.24229 12.9805C7.2905 13.0061 7.37634 13.055 7.51541 13.1457C7.79838 13.3301 8.12454 13.5405 8.48511 13.7708C8.89156 14.0299 9.41521 14.264 10.0408 14.4659C10.6804 14.6728 11.3328 14.7778 11.9802 14.7778C12.6277 14.7778 13.2802 14.6728 13.9195 14.4661C14.5456 14.2638 15.0691 14.0299 15.4761 13.7704C15.8451 13.5346 16.1621 13.3303 16.4451 13.1457C16.5841 13.0552 16.67 13.0061 16.7182 12.9805C17.1139 12.9911 17.4782 13.0613 17.8026 13.1896C18.1529 13.3283 18.4504 13.5134 18.6864 13.7393C18.9388 13.9806 19.1674 14.2805 19.3662 14.6303C19.5746 14.9968 19.7427 15.3776 19.8656 15.7616C19.9941 16.1631 20.1022 16.6057 20.1868 17.0772C20.2724 17.5559 20.3305 18.0057 20.3588 18.4143V18.4146C20.388 18.8302 20.4027 19.2646 20.4029 19.706C20.4027 20.5524 20.1637 21.1915 19.6717 21.6596Z" fill="#211E34"/>
</g>
<defs>
<clipPath id="clip0">
<rect width="23.4894" height="23.4894" fill="white" transform="translate(0.255371 0.255859)"/>
</clipPath>
</defs>
</svg>
