<svg width="20" height="20" viewBox="0 0 20 20" fill="none" xmlns="http://www.w3.org/2000/svg">
<g clip-path="url(#clip0)">
<path d="M19.8353 19.4433C19.8057 19.4287 16.8495 17.9447 14.327 14.36C14.2337 14.2274 14.0506 14.1956 13.9181 14.2889C13.7855 14.3822 13.7536 14.5653 13.8469 14.6979C15.5966 17.1843 17.5204 18.6795 18.6353 19.413H1.35925C1.84574 19.092 2.48819 18.6246 3.20577 17.9915C3.32733 17.8842 3.33894 17.6987 3.23167 17.5772C3.12444 17.4556 2.93894 17.444 2.81733 17.5513C1.34109 18.8537 0.174254 19.4377 0.162848 19.4433C0.0404263 19.5036 -0.024261 19.6403 0.00671547 19.7732C0.037692 19.9061 0.156129 20.0001 0.292574 20.0001H19.7055C19.8419 20.0001 19.9604 19.9061 19.9913 19.7732C20.0224 19.6403 19.9577 19.5036 19.8353 19.4433Z" fill="#5DD1D9"/>
<path d="M9.70654 14.068V16.751C9.70654 16.9131 9.83795 17.0446 10.0001 17.0446C10.1622 17.0446 10.2937 16.9132 10.2937 16.751V14.068C10.2937 13.9059 10.1622 13.7744 10.0001 13.7744C9.83799 13.7744 9.70654 13.9058 9.70654 14.068Z" fill="#5DD1D9"/>
<path d="M11.6673 13.9206C11.5114 13.9652 11.4212 14.1276 11.4657 14.2835C11.4887 14.3638 12.0506 16.2661 14.0659 17.8319C14.2024 17.9379 14.4063 17.9003 14.4965 17.7532C14.5736 17.6274 14.5426 17.4587 14.4261 17.3682C12.5762 15.931 12.0391 14.1521 12.0301 14.1219C11.9855 13.9662 11.823 13.876 11.6673 13.9206Z" fill="#5DD1D9"/>
<path d="M7.46244 15.0105C6.8324 17.0704 5.30587 18.1525 5.29056 18.1632C5.16954 18.2472 5.12943 18.4137 5.19939 18.5434C5.2813 18.6952 5.48283 18.7439 5.6249 18.6457C5.69427 18.5978 7.33185 17.4446 8.0238 15.1822C8.07122 15.0272 7.984 14.8631 7.82896 14.8157C7.67384 14.7682 7.50986 14.8555 7.46244 15.0105Z" fill="#5DD1D9"/>
<path d="M5.63604 6.59012C5.97956 6.59012 6.31999 6.51805 6.63151 6.38094C7.05354 6.65394 7.55905 6.80984 8.09874 6.80984C8.3144 6.80984 8.52628 6.78488 8.73229 6.73531V8.76816C8.48073 8.85613 8.27823 9.05449 8.1923 9.31621C7.25171 12.1808 5.72581 14.6861 3.65702 16.7625C3.55034 16.8695 3.54358 17.0461 3.64214 17.1608C3.75214 17.2887 3.9537 17.2964 4.07288 17.1768C5.26366 15.9817 6.27972 14.6491 7.1139 13.1917C7.96601 13.0137 8.45515 12.4748 8.7846 12.1115C8.84241 12.0477 8.91343 11.9694 8.97116 11.9136C8.99917 11.982 9.02933 12.0674 9.05265 12.1333C9.19827 12.5455 9.41835 13.1685 9.99991 13.1685C10.5815 13.1685 10.8015 12.5455 10.9471 12.1333C10.9704 12.0674 11.0006 11.982 11.0286 11.9136C11.0864 11.9694 11.1574 12.0477 11.2152 12.1115C11.5451 12.4753 12.0351 13.0151 12.8893 13.1924C12.9875 13.3638 13.0881 13.5336 13.1913 13.7014C13.2762 13.8395 13.4569 13.8826 13.5951 13.7977C13.7332 13.7129 13.7763 13.5321 13.6914 13.3939C12.915 12.1307 12.2812 10.7588 11.8075 9.31625C11.7216 9.05457 11.5191 8.85617 11.2675 8.7682V6.97109C11.5891 6.90305 11.8874 6.77285 12.1485 6.59242C12.5753 6.81578 13.0522 6.93305 13.5396 6.93305C15.1658 6.93305 16.4887 5.64152 16.4887 4.05402C16.4887 2.46652 15.1658 1.175 13.5396 1.175C13.293 1.175 13.0475 1.20531 12.8083 1.26504C12.5379 1.16293 12.2445 1.10633 11.9376 1.10633C11.5875 1.10633 11.2442 1.17996 10.9291 1.32121C10.4645 0.509961 9.58948 0.000976562 8.61952 0.000976562C7.40437 0.000976562 6.37847 0.804727 6.06819 1.89617C5.92589 1.87098 5.7814 1.85789 5.63593 1.85789C4.30026 1.85789 3.21362 2.91934 3.21362 4.22398C3.21374 5.52867 4.30038 6.59012 5.63604 6.59012ZM12.4689 12.4179C12.1086 12.2212 11.8542 11.942 11.6501 11.7171C11.4049 11.4466 11.1732 11.1912 10.8542 11.28C10.6011 11.3504 10.505 11.6226 10.3936 11.9378C10.3031 12.1941 10.1663 12.5814 9.99995 12.5814C9.83362 12.5814 9.69683 12.1941 9.60628 11.9378C9.49495 11.6226 9.39878 11.3504 9.14565 11.28C8.82675 11.1914 8.59503 11.4467 8.34976 11.7171C8.14651 11.9412 7.89323 12.2191 7.53507 12.4157C8.01054 11.4894 8.41616 10.5163 8.75007 9.49937C8.78823 9.38316 8.89905 9.30508 9.02585 9.30508H10.9741C11.1009 9.30508 11.2117 9.38316 11.2499 9.49934C11.5816 10.5098 11.99 11.4867 12.4689 12.4179ZM15.9017 4.05398C15.9017 5.31777 14.8421 6.3459 13.5397 6.3459C13.2212 6.3459 12.9086 6.28352 12.6187 6.16414C12.7567 5.99977 12.8739 5.81625 12.9643 5.6157C13.8163 5.22711 14.3601 4.39887 14.3601 3.47246C14.3601 2.80121 14.072 2.19488 13.6108 1.76383C14.8804 1.80051 15.9017 2.81332 15.9017 4.05398ZM5.63604 2.44496C5.75003 2.44496 5.86319 2.45543 5.97452 2.47566C5.97151 2.54426 5.97081 2.6127 5.97366 2.68129C5.78913 2.92297 5.65093 3.19121 5.5621 3.4802C5.51448 3.63516 5.60147 3.79941 5.75644 3.84703C5.91144 3.89457 6.07565 3.80766 6.12327 3.6527C6.20061 3.40109 6.32694 3.16953 6.49878 2.96449C6.59226 2.85297 6.55874 2.7198 6.55874 2.58684C6.55874 1.48473 7.48327 0.588086 8.61964 0.588086C9.46206 0.588086 10.2116 1.07742 10.5291 1.83473C10.5977 1.99836 10.8028 2.06437 10.954 1.97098C11.2482 1.78937 11.5884 1.6934 11.9377 1.6934C12.9497 1.6934 13.773 2.49148 13.773 3.47246C13.773 4.19816 13.325 4.84465 12.6316 5.11949C12.5556 5.14961 12.4957 5.20996 12.4661 5.28605C12.2237 5.90992 11.6263 6.35828 10.9441 6.42828C10.7944 6.44363 10.6805 6.56977 10.6805 6.72031V8.71801H9.31937V6.33148C9.31937 6.12578 9.10292 5.98109 8.91272 6.06063C8.65503 6.1682 8.38112 6.22277 8.0987 6.22277C7.1312 6.22277 6.30507 5.585 6.08968 4.67188C6.05245 4.5141 5.89437 4.41645 5.73655 4.45355C5.57878 4.49078 5.48104 4.64887 5.51823 4.80668C5.62069 5.24094 5.82952 5.62668 6.11413 5.94113C5.95882 5.98172 5.79796 6.00305 5.63601 6.00305C4.62405 6.00305 3.80077 5.205 3.80077 4.22402C3.80081 3.24301 4.62409 2.44496 5.63604 2.44496Z" fill="#5DD1D9"/>
</g>
<defs>
<clipPath id="clip0">
<rect width="20" height="20" fill="white"/>
</clipPath>
</defs>
</svg>
