<svg width="20" height="20" viewBox="0 0 20 20" fill="none" xmlns="http://www.w3.org/2000/svg">
<g clip-path="url(#clip0)">
<path d="M15.8351 15.7919C15.6984 15.7053 15.5174 15.7457 15.4308 15.8824C14.6991 17.0355 13.4482 17.724 12.0845 17.724H4.54559C2.36221 17.724 0.585938 15.9476 0.585938 13.7642V6.74301C0.585938 6.58127 0.454712 6.45004 0.292969 6.45004C0.131226 6.45004 0 6.58127 0 6.74301V13.7642C0 16.2708 2.03918 18.3099 4.54559 18.3099H12.0845C13.6499 18.3099 15.0859 17.5197 15.9254 16.1963C16.0121 16.0597 15.9717 15.8786 15.8351 15.7919ZM13.2594 8.00659L11.0257 10.2405C10.9113 10.3549 10.9113 10.5405 11.0257 10.6548C11.0828 10.712 11.1578 10.7407 11.2328 10.7407C11.3077 10.7407 11.3828 10.712 11.44 10.6548L13.6737 8.42102C13.7881 8.30658 13.7881 8.12103 13.6737 8.00659C13.5594 7.8923 13.3739 7.8923 13.2594 8.00659ZM19.5761 3.12546L18.555 2.10434C17.9898 1.539 17.07 1.539 16.5048 2.10434L15.4448 3.16437C14.5836 2.2171 13.3766 1.67969 12.0845 1.67969H4.54559C3.49991 1.67969 2.47894 2.04361 1.67068 2.70432C0.873871 3.35556 0.316467 4.26544 0.101471 5.26611C0.0674438 5.42435 0.168152 5.58014 0.326385 5.61417C0.347137 5.61844 0.367889 5.62073 0.388184 5.62073C0.523376 5.62073 0.644836 5.52673 0.674286 5.38925C0.861664 4.51797 1.34705 3.72559 2.04147 3.15796C2.74536 2.58255 3.63464 2.26562 4.54559 2.26562H12.0845C13.2191 2.26562 14.2786 2.74139 15.0299 3.57925L11.9144 6.69479H3.74466C3.58276 6.69479 3.45154 6.82587 3.45154 6.98776C3.45154 7.14951 3.58276 7.28073 3.74466 7.28073H11.3284L9.92371 8.6853H3.74466C3.58276 8.6853 3.45154 8.81653 3.45154 8.97842C3.45154 9.14017 3.58276 9.27139 3.74466 9.27139H9.33777L7.52045 11.0887C6.99387 11.6153 6.56296 12.2226 6.23993 12.8937L5.40604 14.626C5.17532 15.1056 5.26932 15.6586 5.6456 16.0349C5.88486 16.2741 6.19568 16.3992 6.51367 16.3992C6.69556 16.3992 6.87988 16.3582 7.05429 16.2743L7.89474 15.8698C7.8949 15.8696 7.8952 15.8696 7.89536 15.8694L8.78677 15.4405C9.4577 15.1175 10.065 14.6866 10.5917 14.16L16.0443 8.70743V13.7642C16.0443 14.0851 16.0059 14.4041 15.93 14.7127C15.8914 14.8698 15.9875 15.0284 16.1447 15.067C16.1682 15.0728 16.1917 15.0755 16.2148 15.0755C16.3466 15.0755 16.4662 14.9861 16.499 14.8524C16.5862 14.4983 16.6302 14.1321 16.6302 13.7642V8.12149L17.4446 7.30713C17.4448 7.30698 17.4448 7.30698 17.4448 7.30682C17.4449 7.30682 17.4449 7.30682 17.4449 7.30667L19.5761 5.17563C20.1413 4.61029 20.1413 3.69064 19.5761 3.12546ZM6.80023 15.7463C6.49445 15.8936 6.21735 15.7779 6.05988 15.6206C5.90256 15.4631 5.7869 15.186 5.93414 14.8802L6.18134 14.3665C6.38763 14.5314 6.58783 14.7102 6.77902 14.9014C6.97021 15.0926 7.14905 15.2928 7.314 15.4991L6.80023 15.7463ZM8.53256 14.9126L7.85461 15.2388C7.65366 14.9782 7.43225 14.726 7.1933 14.4872C6.95435 14.2482 6.70212 14.0266 6.44165 13.8258L6.76788 13.1479C6.9931 12.6802 7.2757 12.2467 7.61093 11.8539L9.82651 14.0695C9.43375 14.4046 9.00024 14.6873 8.53256 14.9126ZM10.2544 13.6687L8.01178 11.4261L14.5807 4.85703L16.8233 7.09961L10.2544 13.6687ZM17.2377 6.68533L14.9951 4.44275L15.7184 3.71948L17.9611 5.96207L17.2377 6.68533ZM19.1618 4.7612L18.3754 5.54764L16.1328 3.30505L16.9191 2.51862C17.0876 2.35016 17.3087 2.26608 17.5299 2.26608C17.751 2.26608 17.9723 2.35016 18.1406 2.51862L19.1617 3.53973C19.4984 3.8765 19.4984 4.42444 19.1618 4.7612ZM3.74466 5.29007H12.8856C13.0473 5.29007 13.1786 5.159 13.1786 4.9971C13.1786 4.83521 13.0473 4.70413 12.8856 4.70413H3.74466C3.58276 4.70413 3.45154 4.83521 3.45154 4.9971C3.45154 5.159 3.58276 5.29007 3.74466 5.29007Z" fill="#1FC7D3"/>
</g>
<defs>
<clipPath id="clip0">
<rect width="20" height="20" fill="white"/>
</clipPath>
</defs>
</svg>
