<svg width="20" height="20" viewBox="0 0 20 20" fill="none" xmlns="http://www.w3.org/2000/svg">
<path d="M16.0229 2.65332H3.97714C1.78408 2.65332 0 4.44312 0 6.64271V13.3574C0 15.5574 1.78408 17.3468 3.97714 17.3468H16.0229C18.2159 17.3468 20 15.557 20 13.3574V6.64271C20 4.44312 18.2159 2.65332 16.0229 2.65332ZM19.1837 13.3578C19.1837 15.1076 17.7657 16.5309 16.0229 16.5309H3.97714C2.23429 16.5309 0.816327 15.1072 0.816327 13.3578V6.64271C0.816327 4.89332 2.23429 3.46965 3.97714 3.46965H16.0229C17.7657 3.46965 19.1837 4.89332 19.1837 6.64271V13.3578Z" fill="#1FC7D3"/>
<path d="M13.6163 9.85244L7.96121 6.5402C7.83549 6.46673 7.67917 6.4655 7.55223 6.53816C7.42529 6.61081 7.34692 6.74591 7.34692 6.89244V13.5165C7.34692 13.6626 7.42529 13.7982 7.55182 13.8708C7.61468 13.9067 7.68488 13.9247 7.75509 13.9247C7.82652 13.9247 7.89754 13.9059 7.96121 13.8688L13.6163 10.5573C13.7412 10.4843 13.8184 10.35 13.8184 10.2051C13.8184 10.0602 13.7416 9.92551 13.6163 9.85244ZM8.16325 12.8043V7.60428L12.6024 10.2047L8.16325 12.8043Z" fill="#1FC7D3"/>
</svg>
